<?xml version="1.0" standalone="yes"?>
<svg xmlns="http://www.w3.org/2000/svg" width="574" height="106">
<path style="fill:#ffffff; stroke:none;" d="M0 0L0 106L574 106L574 0L0 0z"/>
<path style="fill:#c6edee; stroke:none;" d="M79 8C80.2483 8.68479 80.5484 8.74879 82 9C80.7516 8.31519 80.4516 8.25121 79 8z"/>
<path style="fill:#5fccd0; stroke:none;" d="M78 9L79 10L78 9z"/>
<path style="fill:#1bb6bd; stroke:none;" d="M79.3179 9.78241C76.7289 10.926 76.8567 14.2225 78.6042 16.0347C81.0657 18.5875 85.1222 19.7182 87.9992 21.7886C94.0143 26.1173 98.0891 32.189 100.775 38.9992C101.817 41.6391 103.667 47.3411 107.687 45.5926C112.196 43.6312 108.833 35.9597 107.571 33C103.823 24.2103 97.2809 17.0013 89 12.233C86.3555 10.7103 82.4687 8.39072 79.3179 9.78241z"/>
<path style="fill:#76d3d8; stroke:none;" d="M83 9L84 10L83 9z"/>
<path style="fill:#b2e6e9; stroke:none;" d="M86 10L87 11L86 10z"/>
<path style="fill:#a8e3e5; stroke:none;" d="M76 11L77 12L76 11z"/>
<path style="fill:#64cdd2; stroke:none;" d="M87 11L88 12L87 11z"/>
<path style="fill:#93dddf; stroke:none;" d="M30 12C31.2484 12.6848 31.5484 12.7488 33 13C31.7516 12.3152 31.4516 12.2512 30 12z"/>
<path style="fill:#53c7cc; stroke:none;" d="M76 12L76 15C76.6961 13.4463 76.6961 13.5537 76 12z"/>
<path style="fill:#7bd5d8; stroke:none;" d="M89 12L90 13L89 12z"/>
<path style="fill:#8cdadd; stroke:none;" d="M28 13L29 14L28 13z"/>
<path style="fill:#18b5bc; stroke:none;" d="M28.9954 13.7616C23.8967 15.5224 18.6549 22.0362 16.848 26.9992C15.7392 30.0447 16.621 34.7381 20.9151 33.338C24.9273 32.0297 32.2173 22.734 33.9529 19.0046C35.7358 15.1738 32.8405 12.4336 28.9954 13.7616z"/>
<path style="fill:#9fe0e3; stroke:none;" d="M91 13L92 14L91 13z"/>
<path style="fill:#6fd0d5; stroke:none;" d="M92 14L93 15L92 14z"/>
<path style="fill:#8cdade; stroke:none;" d="M35 15L35 18C35.6961 16.4463 35.6961 16.5537 35 15z"/>
<path style="fill:#b6e7ea; stroke:none;" d="M94 15L95 16L94 15z"/>
<path style="fill:#9ddfe3; stroke:none;" d="M24 16L25 17L24 16z"/>
<path style="fill:#65ced2; stroke:none;" d="M78 16L79 17L78 16z"/>
<path style="fill:#87d8dc; stroke:none;" d="M95 16L96 17L95 16z"/>
<path style="fill:#8cdade; stroke:none;" d="M23 17L24 18L23 17z"/>
<path style="fill:#8ddadd; stroke:none;" d="M80 17L81 18L80 17z"/>
<path style="fill:#66cdd3; stroke:none;" d="M96 17L97 18L96 17z"/>
<path style="fill:#8fdbde; stroke:none;" d="M22 18L23 19L22 18z"/>
<path style="fill:#8ddade; stroke:none;" d="M82 18L83 19L82 18z"/>
<path style="fill:#67ced3; stroke:none;" d="M97 18L98 19L97 18z"/>
<path style="fill:#a8e3e5; stroke:none;" d="M21 19L22 20L21 19z"/>
<path style="fill:#8ddadd; stroke:none;" d="M84 19L85 20L84 19z"/>
<path style="fill:#66cdd3; stroke:none;" d="M98 19L99 20L98 19z"/>
<path style="fill:#6ed0d5; stroke:none;" d="M86 20L87 21L86 20z"/>
<path style="fill:#67ced3; stroke:none;" d="M99 20L100 21L99 20z"/>
<path style="fill:#a9aaae; stroke:none;" d="M280 20C283.163 21.3274 286.586 20.9996 290 21C286.837 19.6726 283.414 20.0004 280 20z"/>
<path style="fill:#a3e1e4; stroke:none;" d="M87 21L88 22L87 21z"/>
<path style="fill:#66cdd3; stroke:none;" d="M100 21L101 22L100 21z"/>
<path style="fill:#52565d; stroke:none;" d="M280 21L280 74L290 74L290 59C296.099 62.0974 297.808 69.5373 303.464 72.9722C306.577 74.8632 311.502 74 315 74C312.739 69.57 309.488 65.8777 306.39 62C304.84 60.0593 302.335 57.7149 302.538 55C302.94 49.6152 311.06 43.4441 314 39C310.56 39 306.226 38.3434 303.09 40.0278C297.815 42.86 294.856 49.4261 290 53L290 21L280 21z"/>
<path style="fill:#dbdcde; stroke:none;" d="M290 21L290 52C291.328 48.8344 291 45.4186 291 42C291 35.58 292.497 26.9508 290 21z"/>
<path style="fill:#7ed5d9; stroke:none;" d="M19 22L20 23L19 22z"/>
<path style="fill:#65ced2; stroke:none;" d="M89 22L90 23L89 22z"/>
<path style="fill:#8ddade; stroke:none;" d="M101 22L102 23L101 22z"/>
<path style="fill:#aae3e6; stroke:none;" d="M18 23L19 24L18 23z"/>
<path style="fill:#8ddadd; stroke:none;" d="M90 23L91 24L90 23z"/>
<path style="fill:#b6e7e9; stroke:none;" d="M102 23L103 24L102 23z"/>
<path style="fill:#d2d4d6; stroke:none;" d="M141 23C146.222 25.1914 153.368 24 159 24C153.778 21.8086 146.632 23 141 23z"/>
<path style="fill:#d3d5d7; stroke:none;" d="M327 23C331.471 24.8763 337.183 24 342 24C337.529 22.1237 331.817 23 327 23z"/>
<path style="fill:#d4d5d7; stroke:none;" d="M364 23C368.471 24.8763 374.183 24 379 24C374.529 22.1237 368.817 23 364 23z"/>
<path style="fill:#d4d6d7; stroke:none;" d="M437 23C443.202 25.6026 452.298 24 459 24C452.798 21.3974 443.702 23 437 23z"/>
<path style="fill:#8ddade; stroke:none;" d="M91 24L92 25L91 24z"/>
<path style="fill:#63676e; stroke:none;" d="M141 24L141 74C142.769 69.7849 142 64.5355 142 60L142 37C142 32.7396 142.661 27.9586 141 24z"/>
<path style="fill:#4e535a; stroke:none;" d="M142 24L142 74L159 74C157.752 73.3152 157.452 73.2512 156 73C158.418 72.2776 160.472 72.0519 163 72C160.387 70.9023 157.835 71.0072 155 71L159 70C157.231 69.2211 155.964 69.0876 154 69C157.041 68.1004 159.831 68.0081 163 68C159.985 66.7344 156.084 67.6674 153.318 65.821C149.564 63.3155 151 55.8812 151 52L155 52C152.11 50.7871 149.126 51.0017 146 51C146.338 49.3278 146.537 49.6898 145 49C147.106 48.3562 148.795 48.0941 151 48C148.668 47.0155 146.543 47.0187 144 47C145.479 46.0143 145.203 46 147 46C145.494 45.317 144.685 45.1741 143 45C145.729 44.1898 148.15 44.0209 151 44L151 32L167 32C164.948 31.1257 163.253 31.0472 161 31L163 30C161.752 29.3152 161.452 29.2512 160 29C162.418 28.2776 164.472 28.0519 167 28C158.786 24.5087 150.897 24 142 24z"/>
<path style="fill:#4f535a; stroke:none;" d="M158 24C160.351 27.2597 163.175 26.9865 167 27C164.582 27.7224 162.528 27.9481 160 28C161.248 28.6848 161.548 28.7488 163 29L161 30C163.052 30.8743 164.747 30.9528 167 31C164.582 31.7224 162.528 31.9481 160 32C161.123 33.2752 162.605 34.5927 163.397 36.115C165.104 39.3993 162.963 42.1669 159.981 43.6821C155.055 46.185 148.317 44.0147 143 44C144.506 44.683 145.315 44.8259 147 45C145.521 45.9857 145.797 46 144 46C146.332 46.9845 148.457 46.9813 151 47C148.894 47.6438 147.205 47.9059 145 48C146.364 49.8191 146.492 49.031 146 51C151.31 51.0146 159.396 50.6565 163.941 53.7423C168.698 56.9713 167.931 62.1624 162.981 64.6821C159.933 66.2332 156.315 65.9909 153 66C156.163 67.3274 159.586 66.9996 163 67C159.959 67.8996 157.169 67.9919 154 68C155.769 68.7789 157.036 68.9124 159 69L155 70C157.613 71.0977 160.165 70.9928 163 71C160.582 71.7224 158.528 71.9481 156 72C168.456 79.4612 184.863 64.7095 175.147 52.2137C173.501 50.096 171.374 49.0672 169 48C179.012 36.7335 171.915 25.1381 158 24z"/>
<path style="fill:#9da0a4; stroke:none;" d="M162 24C163.248 24.6848 163.548 24.7488 165 25C163.752 24.3152 163.452 24.2512 162 24z"/>
<path style="fill:#b9bbbe; stroke:none;" d="M326 24L326 27C326.696 25.4463 326.696 25.5537 326 24z"/>
<path style="fill:#53575e; stroke:none;" d="M327 24C326.862 40.6908 323.138 57.2996 323 74L333 74C333.034 61.6281 335.47 49.343 336 37C341.772 47.9535 346.208 61.9305 349 74C358.081 73.8924 359.189 66.8282 361 59C357.81 58.7677 356.32 58.2032 354 56L359 56C356.993 55.1205 354.338 54.974 352.701 53.3974C348.657 49.5019 347.406 40.2183 345.667 35C344.677 32.0304 343.949 27.0161 341.298 25.0278C338.075 22.6105 330.846 24 327 24z"/>
<path style="fill:#9c9fa3; stroke:none;" d="M363 24L364 25L363 24z"/>
<path style="fill:#54585f; stroke:none;" d="M353 55L359 55C357.199 55.5618 355.878 55.8241 354 56C356.296 59.1814 360.035 59.8032 362.2 55.8519C365.48 49.8642 365.391 42.2279 370 37C370 49.0775 370.795 62.124 373 74L383 74C381.395 67.2587 381.418 59.9101 380.911 53C380.2 43.2906 379 33.7618 379 24C375.016 24 367.91 22.6403 364.51 25.0278C361.923 26.8444 361.3 31.2117 360.308 34C357.82 40.9876 355.296 47.9434 353 55z"/>
<path style="fill:#565a61; stroke:none;" d="M437 24L437 35C444.645 34.9992 453.775 30.7416 460.985 34.4568C469.48 38.8351 470.925 51.4611 466.005 58.9568C463.81 62.3012 460.432 64.1622 457 66C460.163 67.3274 463.586 66.9996 467 67C463.959 67.8996 461.169 67.9919 458 68C459.769 68.7789 461.036 68.9124 463 69C461.521 69.9857 461.797 70 460 70C466.924 72.9792 472.959 69.389 476.326 62.9992C480.385 55.2981 480.532 42.6517 476.351 35.0008C468.651 20.9103 450.476 24 437 24z"/>
<path style="fill:#adafb2; stroke:none;" d="M461 24C462.248 24.6848 462.548 24.7488 464 25C462.752 24.3153 462.452 24.2512 461 24z"/>
<path style="fill:#7bd4d9; stroke:none;" d="M17 25L18 26L17 25z"/>
<path style="fill:#b2e6e8; stroke:none;" d="M28 25L29 26L28 25z"/>
<path style="fill:#b2e7e8; stroke:none;" d="M56.6667 25.3333C56.2222 25.7778 57.2778 25.7222 57.3333 25.6667C57.7778 25.2222 56.7222 25.2778 56.6667 25.3333z"/>
<path style="fill:#8ddade; stroke:none;" d="M58.6667 25.3333C58.2222 25.7778 59.2778 25.7222 59.3333 25.6667C59.7778 25.2222 58.7222 25.2778 58.6667 25.3333z"/>
<path style="fill:#66cdd3; stroke:none;" d="M60 25C61.506 25.683 62.3148 25.8259 64 26C62.494 25.317 61.6852 25.1741 60 25z"/>
<path style="fill:#a9e3e6; stroke:none;" d="M64 25C65.2484 25.6848 65.5484 25.7488 67 26C65.7516 25.3152 65.4516 25.2512 64 25z"/>
<path style="fill:#8ddade; stroke:none;" d="M92 25L93 26L92 25z"/>
<path style="fill:#63cdd2; stroke:none;" d="M103 25L104 26L103 25z"/>
<path style="fill:#878a8f; stroke:none;" d="M166 25L167 26L166 25z"/>
<path style="fill:#c6c7ca; stroke:none;" d="M167 25L168 26L167 25z"/>
<path style="fill:#b7b9bb; stroke:none;" d="M342 25L343 26L342 25z"/>
<path style="fill:#8d8f93; stroke:none;" d="M465 25L466 26L465 25z"/>
<path style="fill:#cbccce; stroke:none;" d="M466 25L467 26L466 25z"/>
<path style="fill:#a0e0e4; stroke:none;" d="M27 26L28 27L27 26z"/>
<path style="fill:#60cdd1; stroke:none;" d="M53.6667 26.3333C53.2222 26.7778 54.2778 26.7222 54.3333 26.6667C54.7777 26.2223 53.7222 26.2778 53.6667 26.3333z"/>
<path style="fill:#1ab5bc; stroke:none;" d="M37 39L43 39C41.1994 39.5618 39.8782 39.8241 38 40C43.2253 47.2376 52.4719 35.613 59 34.3827C69.4449 32.4142 81.0751 40.9548 83.4676 51C84.7812 56.5155 83.22 61.6626 82 67L87 67C85.1994 67.5618 83.8781 67.8241 82 68C83.7691 68.7789 85.0359 68.9124 87 69L83 70C94.3269 74.5817 93.0406 53.0866 91.4853 47C85.4463 23.3666 49.3746 18.0363 37 39z"/>
<path style="fill:#62cdd2; stroke:none;" d="M69 26L70 27L69 26z"/>
<path style="fill:#8ddade; stroke:none;" d="M93 26L94 27L93 26M104 26L105 27L104 26z"/>
<path style="fill:#868a8e; stroke:none;" d="M168 26L169 27L168 26z"/>
<path style="fill:#d0d2d4; stroke:none;" d="M362 26L363 27L362 26z"/>
<path style="fill:#c7c8ca; stroke:none;" d="M468 26L469 27L468 26z"/>
<path style="fill:#84d8db; stroke:none;" d="M26 27L27 28L26 27z"/>
<path style="fill:#4fc6cb; stroke:none;" d="M50.6667 27.3333C50.2222 27.7778 51.2778 27.7222 51.3333 27.6667C51.7777 27.2223 50.7222 27.2778 50.6667 27.3333z"/>
<path style="fill:#92dcdf; stroke:none;" d="M72.6667 27.3333C72.2222 27.7778 73.2778 27.7222 73.3333 27.6667C73.7778 27.2222 72.7222 27.2778 72.6667 27.3333z"/>
<path style="fill:#80d6da; stroke:none;" d="M94 27L95 28L94 27z"/>
<path style="fill:#8d9094; stroke:none;" d="M326.333 27.6667C326.278 27.7221 326.222 28.7778 326.667 28.3333C326.722 28.2777 326.778 27.2222 326.333 27.6667z"/>
<path style="fill:#95989c; stroke:none;" d="M362 27L363 28L362 27z"/>
<path style="fill:#878b8f; stroke:none;" d="M469 27L470 28L469 27z"/>
<path style="fill:#6acfd4; stroke:none;" d="M25 28L26 29L25 28z"/>
<path style="fill:#95dde0; stroke:none;" d="M48 28L49 29L48 28z"/>
<path style="fill:#7bd5d8; stroke:none;" d="M75 28L76 29L75 28z"/>
<path style="fill:#85d8db; stroke:none;" d="M105 28L106 29L105 28z"/>
<path style="fill:#b2b4b7; stroke:none;" d="M343 28L344 29L343 28z"/>
<path style="fill:#d6d8d9; stroke:none;" d="M379 28L379 31C379.696 29.4463 379.696 29.5537 379 28z"/>
<path style="fill:#6fd1d5; stroke:none;" d="M15 29L15 32C15.6961 30.4463 15.6961 30.5537 15 29z"/>
<path style="fill:#9ddfe3; stroke:none;" d="M46 29L47 30L46 29z"/>
<path style="fill:#84d7db; stroke:none;" d="M77 29L78 30L77 29z"/>
<path style="fill:#707479; stroke:none;" d="M326 29L326 32C326.696 30.4463 326.696 30.5537 326 29z"/>
<path style="fill:#cacbce; stroke:none;" d="M361 29L362 30L361 29z"/>
<path style="fill:#cbccce; stroke:none;" d="M472 29L473 30L472 29z"/>
<path style="fill:#90dbde; stroke:none;" d="M24 30L25 31L24 30z"/>
<path style="fill:#8ddade; stroke:none;" d="M79 30L80 31L79 30z"/>
<path style="fill:#9de0e2; stroke:none;" d="M96 30L97 31L96 30z"/>
<path style="fill:#7dd5d9; stroke:none;" d="M106 30L107 31L106 30z"/>
<path style="fill:#a4a5aa; stroke:none;" d="M172 30L173 31L172 30z"/>
<path style="fill:#8f9296; stroke:none;" d="M361 30L362 31L361 30z"/>
<path style="fill:#c3c5c8; stroke:none;" d="M473 30L474 31L473 30z"/>
<path style="fill:#b0e6e8; stroke:none;" d="M43 31L44 32L43 31z"/>
<path style="fill:#69cfd3; stroke:none;" d="M80 31L81 32L80 31z"/>
<path style="fill:#6ed0d5; stroke:none;" d="M97 31L98 32L97 31z"/>
<path style="fill:#aeb0b3; stroke:none;" d="M344 31L345 32L344 31z"/>
<path style="fill:#abadb0; stroke:none;" d="M379.333 31.6667C379.278 31.7222 379.222 32.7778 379.667 32.3333C379.722 32.2777 379.778 31.2222 379.333 31.6667z"/>
<path style="fill:#93dcdf; stroke:none;" d="M42 32L43 33L42 32z"/>
<path style="fill:#7bd5d9; stroke:none;" d="M107 32L108 33L107 32z"/>
<path style="fill:#a7a9ac; stroke:none;" d="M151 32C153.89 33.2129 156.874 32.9983 160 33C157.11 31.7871 154.126 32.0017 151 32z"/>
<path style="fill:#aaacb0; stroke:none;" d="M173 32L174 33L173 32z"/>
<path style="fill:#c3c5c7; stroke:none;" d="M360 32L361 33L360 32z"/>
<path style="fill:#b2e6e8; stroke:none;" d="M16 33L17 34L16 33z"/>
<path style="fill:#b6e7ea; stroke:none;" d="M22 33L23 34L22 33z"/>
<path style="fill:#76d3d7; stroke:none;" d="M98 33L99 34L98 33z"/>
<path style="fill:#cacbce; stroke:none;" d="M151 33L151 44C152.431 40.59 152.431 36.41 151 33z"/>
<path style="fill:#ffffff; stroke:none;" d="M152 33L152 44C154.795 43.9981 158.237 44.4414 160.852 43.2577C164.338 41.6797 164.956 36.3649 161.682 34.179C159.054 32.4241 154.998 33.002 152 33z"/>
<path style="fill:#cacbcd; stroke:none;" d="M161 33L162 34L161 33z"/>
<path style="fill:#e4e5e6; stroke:none;" d="M325.333 33.6667C325.278 33.7222 325.222 34.7778 325.667 34.3333C325.722 34.2777 325.778 33.2222 325.333 33.6667z"/>
<path style="fill:#888b90; stroke:none;" d="M360 33L361 34L360 33z"/>
<path style="fill:#8f9297; stroke:none;" d="M379.333 33.6667C379.278 33.7222 379.222 34.7778 379.667 34.3333C379.722 34.2777 379.778 33.2222 379.333 33.6667z"/>
<path style="fill:#a2a3a8; stroke:none;" d="M447 33L447 65C449.599 58.8063 448 49.6856 448 43C448 39.5814 448.328 36.1656 447 33z"/>
<path style="fill:#ffffff; stroke:none;" d="M448 33L448 65C453.031 64.9995 458.604 65.4521 462.895 62.2971C469.861 57.1754 470.321 42.1067 463.786 36.4329C459.658 32.8488 453.14 33.0142 448 33z"/>
<path style="fill:#dddede; stroke:none;" d="M456 33C457.248 33.6849 457.548 33.7488 459 34C457.752 33.3152 457.452 33.2512 456 33z"/>
<path style="fill:#989b9f; stroke:none;" d="M459 33L460 34L459 33z"/>
<path style="fill:#94979b; stroke:none;" d="M475 33L476 34L475 33z"/>
<path style="fill:#bce9eb; stroke:none;" d="M17 34L18 35L17 34z"/>
<path style="fill:#69cfd4; stroke:none;" d="M18 34C19.2484 34.6848 19.5484 34.7488 21 35C19.7516 34.3152 19.4516 34.2512 18 34z"/>
<path style="fill:#69ced4; stroke:none;" d="M57 34C58.2483 34.6848 58.5484 34.7488 60 35C58.7516 34.3152 58.4516 34.2512 57 34z"/>
<path style="fill:#bbe9eb; stroke:none;" d="M60 34C61.2483 34.6848 61.5484 34.7488 63 35C61.7516 34.3152 61.4516 34.2512 60 34z"/>
<path style="fill:#93dcdf; stroke:none;" d="M63 34C64.2484 34.6848 64.5484 34.7488 66 35C64.7516 34.3152 64.4516 34.2512 63 34z"/>
<path style="fill:#abe4e7; stroke:none;" d="M108 34L109 35L108 34z"/>
<path style="fill:#a9acaf; stroke:none;" d="M345 34L346 35L345 34z"/>
<path style="fill:#c5c6c8; stroke:none;" d="M461 34L462 35L461 34z"/>
<path style="fill:#a4e2e5; stroke:none;" d="M55 35L56 36L55 35z"/>
<path style="fill:#ffffff; stroke:none;" d="M56 35.5324C42.2557 38.8068 36.3926 56.4368 43.9699 67.9853C49.0815 75.7759 59.1776 78.6652 68 76.3904C84.2217 72.2077 89.1434 51.4678 76.9066 40.2137C71.459 35.2036 63.0954 33.842 56 35.5324z"/>
<path style="fill:#78d4d7; stroke:none;" d="M68.6667 35.3333C68.2222 35.7778 69.2778 35.7222 69.3333 35.6667C69.7778 35.2222 68.7222 35.2778 68.6667 35.3333z"/>
<path style="fill:#76d3d7; stroke:none;" d="M99 35L100 36L99 35z"/>
<path style="fill:#63ccd1; stroke:none;" d="M108 35L109 36L108 35z"/>
<path style="fill:#c4c5c8; stroke:none;" d="M174 35L174 40C174.83 37.9695 174.83 37.0305 174 35z"/>
<path style="fill:#c6c7ca; stroke:none;" d="M325 35L325 38C325.696 36.4463 325.696 36.5537 325 35z"/>
<path style="fill:#bbbdc0; stroke:none;" d="M359 35L360 36L359 35z"/>
<path style="fill:#73777d; stroke:none;" d="M379 35L379 38C379.696 36.4463 379.696 36.5537 379 35z"/>
<path style="fill:#555960; stroke:none;" d="M437 35L437 74C447.112 74 457.186 74.7579 467 72C464.668 71.0154 462.543 71.0188 460 71C461.479 70.0143 461.203 70 463 70C461.231 69.2211 459.964 69.0876 458 69C461.041 68.1004 463.831 68.0081 467 68C463.837 66.6726 460.414 67.0004 457 67L459 66C455.78 65.0097 451.274 67.046 448.603 64.3958C446.528 62.3365 447.005 58.6506 447 56L447 35L437 35z"/>
<path style="fill:#8c8e93; stroke:none;" d="M463 35L464 36L463 35z"/>
<path style="fill:#67ced3; stroke:none;" d="M38 36L39 37L38 36z"/>
<path style="fill:#8cdade; stroke:none;" d="M52 36L53 37L52 36z"/>
<path style="fill:#8fdbdf; stroke:none;" d="M71 36L72 37L71 36z"/>
<path style="fill:#b3b5b8; stroke:none;" d="M164 36L164 41C164.83 38.9695 164.83 38.0305 164 36z"/>
<path style="fill:#818489; stroke:none;" d="M359 36L360 37L359 36z"/>
<path style="fill:#9b9ea1; stroke:none;" d="M464 36L465 37L464 36z"/>
<path style="fill:#89d9dd; stroke:none;" d="M37 37L38 38L37 37z"/>
<path style="fill:#68ced3; stroke:none;" d="M50 37L51 38L50 37z"/>
<path style="fill:#98dee1; stroke:none;" d="M73 37L74 38L73 37z"/>
<path style="fill:#72d2d5; stroke:none;" d="M86 37L87 38L86 37z"/>
<path style="fill:#93dce0; stroke:none;" d="M109 37L110 38L109 37z"/>
<path style="fill:#dbdcdd; stroke:none;" d="M202 37C203.769 37.779 205.036 37.9124 207 38C205.231 37.2211 203.964 37.0876 202 37z"/>
<path style="fill:#dadbdd; stroke:none;" d="M248 37C249.769 37.779 251.036 37.9124 253 38C251.231 37.2211 249.964 37.0876 248 37z"/>
<path style="fill:#d8d9db; stroke:none;" d="M336 37L337 41C337.393 39.076 337.146 38.6405 336 37z"/>
<path style="fill:#a5a7ab; stroke:none;" d="M346 37L347 38L346 37z"/>
<path style="fill:#73777c; stroke:none;" d="M368.667 37.3333C368.222 37.7779 369.278 37.7222 369.333 37.6667C369.778 37.2223 368.722 37.2777 368.667 37.3333z"/>
<path style="fill:#92969a; stroke:none;" d="M465 37L466 38L465 37z"/>
<path style="fill:#929499; stroke:none;" d="M477 37L478 38L477 37z"/>
<path style="fill:#dadbdd; stroke:none;" d="M504 37C505.769 37.7789 507.036 37.9124 509 38C507.231 37.221 505.964 37.0876 504 37z"/>
<path style="fill:#d7d8d9; stroke:none;" d="M549 37C550.769 37.779 552.036 37.9124 554 38C552.231 37.221 550.964 37.0876 549 37z"/>
<path style="fill:#ade5e7; stroke:none;" d="M36 38L37 39L36 38z"/>
<path style="fill:#b0e6e8; stroke:none;" d="M49 38L50 39L49 38z"/>
<path style="fill:#84d7db; stroke:none;" d="M87 38L88 39L87 38z"/>
<path style="fill:#aeafb3; stroke:none;" d="M198 38L199 39L198 38z"/>
<path style="fill:#50545b; stroke:none;" d="M199 38.5293C185.94 41.5483 180.637 58.6618 189.394 68.8951C194.313 74.6422 202.892 76.035 210 74.4815C222.252 71.8036 228.421 56.5841 221.297 46.0046C216.503 38.8842 207.075 36.6628 199 38.5293z"/>
<path style="fill:#999a9f; stroke:none;" d="M210 38L211 39L210 38z"/>
<path style="fill:#c6c8cb; stroke:none;" d="M211 38L212 39L211 38z"/>
<path style="fill:#b1b3b6; stroke:none;" d="M244 38L245 39L244 38z"/>
<path style="fill:#51555c; stroke:none;" d="M245 38.5293C232.002 41.5339 226.663 58.6876 235.394 68.8951C240.311 74.6429 248.893 76.0347 256 74.4815C268.791 71.6859 274.778 55.5143 266.581 45.0185C261.607 38.6489 252.651 36.7608 245 38.5293z"/>
<path style="fill:#979a9e; stroke:none;" d="M256 38L257 39L256 38z"/>
<path style="fill:#c4c6c9; stroke:none;" d="M257 38L258 39L257 38z"/>
<path style="fill:#a9aaae; stroke:none;" d="M303 38C306.697 39.5515 311.017 39 315 39C311.303 37.4485 306.983 38 303 38z"/>
<path style="fill:#9a9da1; stroke:none;" d="M325 38L325 41C325.696 39.4463 325.696 39.5537 325 38z"/>
<path style="fill:#b6b8bb; stroke:none;" d="M358 38L359 39L358 38z"/>
<path style="fill:#cacbce; stroke:none;" d="M368 38L369 39L368 38z"/>
<path style="fill:#929499; stroke:none;" d="M369 38L369 41C369.696 39.4464 369.696 39.5536 369 38z"/>
<path style="fill:#cfd0d2; stroke:none;" d="M389.333 38.6667C389.278 38.7222 389.222 39.7778 389.667 39.3333C389.722 39.2777 389.778 38.2222 389.333 38.6667z"/>
<path style="fill:#aaabaf; stroke:none;" d="M390 38C393.163 39.3274 396.586 38.9996 400 39C396.837 37.6726 393.414 38.0004 390 38z"/>
<path style="fill:#aaacaf; stroke:none;" d="M418 38C421.163 39.3274 424.586 38.9996 428 39C424.837 37.6726 421.414 38.0004 418 38z"/>
<path style="fill:#8b8f93; stroke:none;" d="M500.667 38.3333C500.222 38.7779 501.278 38.7222 501.333 38.6667C501.778 38.2224 500.722 38.2777 500.667 38.3333z"/>
<path style="fill:#565a61; stroke:none;" d="M502 38.4684C488.853 40.9951 482.671 57.0411 490.804 67.9066C495.651 74.3816 504.415 76.1272 512 74.4815C525.567 71.5379 531.287 53.647 521.471 43.3403C516.703 38.3341 508.513 37.2165 502 38.4684z"/>
<path style="fill:#93969a; stroke:none;" d="M512 38L513 39L512 38z"/>
<path style="fill:#c1c3c5; stroke:none;" d="M513 38L514 39L513 38z"/>
<path style="fill:#a9abaf; stroke:none;" d="M546 38L547 39L546 38z"/>
<path style="fill:#575b62; stroke:none;" d="M570 62C567.273 61.885 563.853 60.9363 561.286 62.1019C557.664 63.7458 555.558 67.5004 551.001 66.6381C537.047 63.9979 544.589 40.6399 555.982 46.8935C558.211 48.1175 559.553 50.0065 561 52C564.04 51.2757 566.878 51.0262 570 51C564.402 32.1529 534.078 34.5554 533.263 55C532.394 76.8117 562.986 82.0695 570 62z"/>
<path style="fill:#a3a6a9; stroke:none;" d="M557.667 38.3333C557.222 38.7778 558.278 38.7222 558.333 38.6667C558.778 38.2223 557.722 38.2777 557.667 38.3333z"/>
<path style="fill:#19b5bc; stroke:none;" d="M88 71L83 71L87 70C85.231 69.2211 83.9641 69.0876 82 69C83.8006 68.4382 85.1218 68.1759 87 68C81.4842 65.778 78.6868 70.2359 74.7145 73.3519C71.9961 75.4843 68.3679 76.8001 65 77.4784C53.9646 79.7008 41.8201 69.8521 40.2137 59C39.3511 53.1725 41.8606 48.2161 44 43C41.1938 42.5736 40.0523 41.9649 38 40L43 40C30.8447 34.9398 30.9303 57.0343 32.5293 64C38.0251 87.9415 78.2786 96.0763 88 71z"/>
<path style="fill:#80d6da; stroke:none;" d="M76 39L77 40L76 39z"/>
<path style="fill:#b5e7e9; stroke:none;" d="M88 39L89 40L88 39z"/>
<path style="fill:#b1b3b6; stroke:none;" d="M195 39L196 40L195 39z"/>
<path style="fill:#8a8d92; stroke:none;" d="M213 39L214 40L213 39z"/>
<path style="fill:#b5b7ba; stroke:none;" d="M241 39L242 40L241 39z"/>
<path style="fill:#898c90; stroke:none;" d="M259 39L260 40L259 39z"/>
<path style="fill:#c8c9cb; stroke:none;" d="M302 39L303 40L302 39z"/>
<path style="fill:#54585f; stroke:none;" d="M390 39C392.256 46.8901 396.201 54.4536 399.421 62C400.861 65.3751 403.242 69.2369 403.242 73C403.242 79.2502 398.092 84.8741 397 91C399.963 90.9977 403.944 91.6004 406.301 89.3966C409.932 86.0013 411.68 78.5183 413.576 74C418.439 62.4111 423.972 50.9073 428 39C425.196 39.0003 421.067 38.3001 418.649 40.0278C413.353 43.8113 411.589 56.1865 409 62C406.841 57.1284 405.317 51.9846 403.424 47C402.524 44.6313 401.828 41.521 399.581 40.0278C397.026 38.3303 392.914 39.0003 390 39z"/>
<path style="fill:#85898e; stroke:none;" d="M400 39L401 40L400 39z"/>
<path style="fill:#c2c3c5; stroke:none;" d="M466 39L467 40L466 39z"/>
<path style="fill:#c7c8cb; stroke:none;" d="M478 39L479 40L478 39z"/>
<path style="fill:#bec0c2; stroke:none;" d="M497 39L498 40L497 39z"/>
<path style="fill:#82868b; stroke:none;" d="M515 39L516 40L515 39z"/>
<path style="fill:#cccdcf; stroke:none;" d="M516 39L517 40L516 39z"/>
<path style="fill:#b8babd; stroke:none;" d="M543 39L544 40L543 39z"/>
<path style="fill:#cfd0d1; stroke:none;" d="M561 39L562 40L561 39z"/>
<path style="fill:#8cdade; stroke:none;" d="M35 40L36 41L35 40z"/>
<path style="fill:#83d7db; stroke:none;" d="M77 40L78 41L77 40z"/>
<path style="fill:#9de0e2; stroke:none;" d="M101.333 40.6667C101.278 40.7222 101.222 41.7778 101.667 41.3333C101.722 41.2778 101.778 40.2222 101.333 40.6667z"/>
<path style="fill:#8ddade; stroke:none;" d="M110 40L110 45C110.83 42.9695 110.83 42.0305 110 40z"/>
<path style="fill:#a1a4a7; stroke:none;" d="M193 40L194 41L193 40z"/>
<path style="fill:#a5a8ab; stroke:none;" d="M239 40L240 41L239 40z"/>
<path style="fill:#d3d4d6; stroke:none;" d="M262 40L263 41L262 40z"/>
<path style="fill:#cccdd0; stroke:none;" d="M313 40L314 41L313 40z"/>
<path style="fill:#a0a3a7; stroke:none;" d="M347 40L348 41L347 40z"/>
<path style="fill:#929599; stroke:none;" d="M367 40L368 41L367 40z"/>
<path style="fill:#d9dadb; stroke:none;" d="M380 40L380 43C380.696 41.4463 380.696 41.5537 380 40z"/>
<path style="fill:#95989c; stroke:none;" d="M417 40L418 41L417 40z"/>
<path style="fill:#878a8f; stroke:none;" d="M427 40L428 41L427 40z"/>
<path style="fill:#b2b4b8; stroke:none;" d="M495 40L496 41L495 40z"/>
<path style="fill:#cacbcd; stroke:none;" d="M518 40L519 41L518 40z"/>
<path style="fill:#c2c4c6; stroke:none;" d="M541 40L542 41L541 40z"/>
<path style="fill:#888b91; stroke:none;" d="M562 40L563 41L562 40z"/>
<path style="fill:#76d3d7; stroke:none;" d="M78 41L79 42L78 41z"/>
<path style="fill:#a5e2e5; stroke:none;" d="M89 41L90 42L89 41z"/>
<path style="fill:#b3b5b7; stroke:none;" d="M217 41L218 42L217 41z"/>
<path style="fill:#adaeb2; stroke:none;" d="M263 41L264 42L263 41z"/>
<path style="fill:#b5b6b9; stroke:none;" d="M312 41L313 42L312 41z"/>
<path style="fill:#6f7479; stroke:none;" d="M325.333 41.6667C325.278 41.7222 325.222 42.7778 325.667 42.3333C325.722 42.2778 325.778 41.2222 325.333 41.6667z"/>
<path style="fill:#afb1b4; stroke:none;" d="M357 41L358 42L357 41z"/>
<path style="fill:#cccdcf; stroke:none;" d="M367 41L368 42L367 41z"/>
<path style="fill:#bfc1c3; stroke:none;" d="M369.333 41.6667C369.278 41.7223 369.222 42.7778 369.667 42.3333C369.722 42.2778 369.778 41.2222 369.333 41.6667z"/>
<path style="fill:#b7b9bb; stroke:none;" d="M390 41L391 42L390 41z"/>
<path style="fill:#b3b5b8; stroke:none;" d="M401 41L402 42L401 41z"/>
<path style="fill:#cfd1d2; stroke:none;" d="M427 41L428 42L427 41z"/>
<path style="fill:#9d9fa4; stroke:none;" d="M467 41L468 42L467 41z"/>
<path style="fill:#85888e; stroke:none;" d="M494 41L495 42L494 41z"/>
<path style="fill:#a3a5a8; stroke:none;" d="M519 41L520 42L519 41z"/>
<path style="fill:#94979b; stroke:none;" d="M540 41L541 42L540 41z"/>
<path style="fill:#bdbfc1; stroke:none;" d="M564 41L565 42L564 41z"/>
<path style="fill:#72d2d6; stroke:none;" d="M34 42L35 43L34 42z"/>
<path style="fill:#69ced3; stroke:none;" d="M79 42L80 43L79 42z"/>
<path style="fill:#b4b5b9; stroke:none;" d="M173 42L174 43L173 42z"/>
<path style="fill:#cfd0d2; stroke:none;" d="M190 42L191 43L190 42z"/>
<path style="fill:#8b8e92; stroke:none;" d="M218 42L219 43L218 42z"/>
<path style="fill:#86898e; stroke:none;" d="M264 42L265 43L264 42z"/>
<path style="fill:#9a9da1; stroke:none;" d="M311 42L312 43L311 42z"/>
<path style="fill:#787c81; stroke:none;" d="M335 42L335 45C335.696 43.4464 335.696 43.5536 335 42z"/>
<path style="fill:#b1b3b6; stroke:none;" d="M338 42L339 43L338 42z"/>
<path style="fill:#babcbf; stroke:none;" d="M416 42L417 43L416 42z"/>
<path style="fill:#a0a1a6; stroke:none;" d="M565 42L566 43L565 42z"/>
<path style="fill:#95dce0; stroke:none;" d="M90 43L91 44L90 43z"/>
<path style="fill:#cccdcf; stroke:none;" d="M161 43L162 44L161 43z"/>
<path style="fill:#8b8e92; stroke:none;" d="M219 43L220 44L219 43z"/>
<path style="fill:#85888d; stroke:none;" d="M265 43L266 44L265 43z"/>
<path style="fill:#909397; stroke:none;" d="M299 43L300 44L299 43z"/>
<path style="fill:#84868c; stroke:none;" d="M310 43L311 44L310 43z"/>
<path style="fill:#9d9ea3; stroke:none;" d="M348 43L349 44L348 43z"/>
<path style="fill:#94979b; stroke:none;" d="M366 43L367 44L366 43z"/>
<path style="fill:#dcdddf; stroke:none;" d="M369 43L369 46C369.696 44.4464 369.696 44.5536 369 43z"/>
<path style="fill:#adb0b2; stroke:none;" d="M380.333 43.6667C380.278 43.7222 380.222 44.7778 380.667 44.3333C380.722 44.2778 380.778 43.2222 380.333 43.6667z"/>
<path style="fill:#a0a3a6; stroke:none;" d="M391 43L392 44L391 43z"/>
<path style="fill:#b5b6b9; stroke:none;" d="M426 43L427 44L426 43z"/>
<path style="fill:#c5c7c9; stroke:none;" d="M479.333 43.6667C479.278 43.7222 479.222 44.7778 479.667 44.3333C479.722 44.2777 479.778 43.2223 479.333 43.6667z"/>
<path style="fill:#9ea0a4; stroke:none;" d="M566 43L567 44L566 43z"/>
<path style="fill:#98dee1; stroke:none;" d="M43 44L44 45L43 44z"/>
<path style="fill:#a9e3e6; stroke:none;" d="M80 44L81 45L80 44z"/>
<path style="fill:#8ddade; stroke:none;" d="M102 44L103 45L102 44z"/>
<path style="fill:#a7a9ac; stroke:none;" d="M151 44C153.613 45.0977 156.165 44.9928 159 45C156.387 43.9023 153.835 44.0072 151 44z"/>
<path style="fill:#bcbec1; stroke:none;" d="M172 44L173 45L172 44z"/>
<path style="fill:#a5a8ab; stroke:none;" d="M220 44L221 45L220 44z"/>
<path style="fill:#9ea0a4; stroke:none;" d="M266 44L267 45L266 44z"/>
<path style="fill:#afb0b4; stroke:none;" d="M298 44L299 45L298 44z"/>
<path style="fill:#a8aaae; stroke:none;" d="M356 44L357 45L356 44z"/>
<path style="fill:#cecfd1; stroke:none;" d="M366 44L367 45L366 44z"/>
<path style="fill:#a1a4a7; stroke:none;" d="M402 44L403 45L402 44z"/>
<path style="fill:#8e9296; stroke:none;" d="M522 44L523 45L522 44z"/>
<path style="fill:#c3c5c7; stroke:none;" d="M567 44L568 45L567 44z"/>
<path style="fill:#70d1d6; stroke:none;" d="M81 45L82 46L81 45z"/>
<path style="fill:#83d7db; stroke:none;" d="M91.3333 45.6667C91.2778 45.7222 91.2222 46.7778 91.6667 46.3333C91.7222 46.2778 91.7778 45.2222 91.3333 45.6667z"/>
<path style="fill:#62cdd1; stroke:none;" d="M103 45L104 46L103 45z"/>
<path style="fill:#a1e0e3; stroke:none;" d="M109 45L110 46L109 45z"/>
<path style="fill:#a1a3a7; stroke:none;" d="M171 45L172 46L171 45z"/>
<path style="fill:#696c72; stroke:none;" d="M204.667 45.3333C204.222 45.7778 205.278 45.7222 205.333 45.6667C205.778 45.2223 204.722 45.2778 204.667 45.3333z"/>
<path style="fill:#c6c6c9; stroke:none;" d="M221 45L222 46L221 45z"/>
<path style="fill:#6b6f75; stroke:none;" d="M250.667 45.3333C250.222 45.7778 251.278 45.7222 251.333 45.6667C251.778 45.2223 250.722 45.2778 250.667 45.3333z"/>
<path style="fill:#bec0c2; stroke:none;" d="M267 45L268 46L267 45z"/>
<path style="fill:#cccdd0; stroke:none;" d="M297 45L298 46L297 45z"/>
<path style="fill:#a5a7ac; stroke:none;" d="M335.333 45.6667C335.278 45.7222 335.222 46.7778 335.667 46.3333C335.722 46.2777 335.778 45.2223 335.333 45.6667z"/>
<path style="fill:#b3b4b8; stroke:none;" d="M339 45L340 46L339 45z"/>
<path style="fill:#d3d4d5; stroke:none;" d="M349 45L350 46L349 45z"/>
<path style="fill:#919498; stroke:none;" d="M380.333 45.6667C380.278 45.7222 380.222 46.7778 380.667 46.3333C380.722 46.2778 380.778 45.2222 380.333 45.6667z"/>
<path style="fill:#888c90; stroke:none;" d="M392 45L393 46L392 45z"/>
<path style="fill:#9ea0a4; stroke:none;" d="M415 45L416 46L415 45z"/>
<path style="fill:#9a9da0; stroke:none;" d="M425 45L426 46L425 45z"/>
<path style="fill:#97999e; stroke:none;" d="M468 45L468 48C468.696 46.4464 468.696 46.5536 468 45z"/>
<path style="fill:#8e9196; stroke:none;" d="M479 45L479 52C480.059 49.4657 480.059 47.5343 479 45z"/>
<path style="fill:#84878c; stroke:none;" d="M490 45L491 46L490 45z"/>
<path style="fill:#72757b; stroke:none;" d="M506.667 45.3333C506.222 45.7778 507.278 45.7222 507.333 45.6667C507.778 45.2222 506.722 45.2778 506.667 45.3333z"/>
<path style="fill:#aeb1b3; stroke:none;" d="M523 45L524 46L523 45z"/>
<path style="fill:#808388; stroke:none;" d="M551 45C552.249 45.6849 552.548 45.7488 554 46C552.752 45.3153 552.451 45.2512 551 45z"/>
<path style="fill:#a9e4e6; stroke:none;" d="M42 46L43 47L42 46z"/>
<path style="fill:#54c7cd; stroke:none;" d="M104.667 46.3333C104.222 46.7777 105.278 46.7222 105.333 46.6667C105.778 46.2222 104.722 46.2778 104.667 46.3333z"/>
<path style="fill:#afe5e8; stroke:none;" d="M107.667 46.3333C107.222 46.7778 108.278 46.7222 108.333 46.6667C108.778 46.2222 107.722 46.2778 107.667 46.3333z"/>
<path style="fill:#b6b9bb; stroke:none;" d="M170 46L171 47L170 46z"/>
<path style="fill:#a8abae; stroke:none;" d="M187 46L188 47L187 46z"/>
<path style="fill:#8e9095; stroke:none;" d="M200 46L201 47L200 46z"/>
<path style="fill:#cdcdcf; stroke:none;" d="M201 46L202 47L201 46z"/>
<path style="fill:#ffffff; stroke:none;" d="M202.015 46.5764C190.653 49.7762 194.784 69.7777 206.996 66.5625C218.805 63.4537 214.553 43.0455 202.015 46.5764z"/>
<path style="fill:#aaadb0; stroke:none;" d="M208 46L209 47L208 46z"/>
<path style="fill:#b1b3b6; stroke:none;" d="M233 46L234 47L233 46z"/>
<path style="fill:#898c90; stroke:none;" d="M246 46L247 47L246 46z"/>
<path style="fill:#caccce; stroke:none;" d="M247 46L248 47L247 46z"/>
<path style="fill:#ffffff; stroke:none;" d="M248.015 46.6566C236.284 50.2834 241.814 70.8833 253.985 66.2539C264.77 62.1514 259.957 42.9647 248.015 46.6566z"/>
<path style="fill:#aeb1b3; stroke:none;" d="M254 46L255 47L254 46z"/>
<path style="fill:#d3d5d7; stroke:none;" d="M324 46L324 49C324.696 47.4463 324.696 47.5537 324 46z"/>
<path style="fill:#989a9f; stroke:none;" d="M349 46L350 47L349 46z"/>
<path style="fill:#96999d; stroke:none;" d="M365 46L366 47L365 46z"/>
<path style="fill:#d3d4d6; stroke:none;" d="M392 46L393 47L392 46z"/>
<path style="fill:#cfd0d2; stroke:none;" d="M403 46L404 47L403 46z"/>
<path style="fill:#c5c6c8; stroke:none;" d="M489 46L490 47L489 46z"/>
<path style="fill:#83868b; stroke:none;" d="M502 46L503 47L502 46z"/>
<path style="fill:#c8c9cb; stroke:none;" d="M503 46L504 47L503 46z"/>
<path style="fill:#ffffff; stroke:none;" d="M504.015 46.6566C492.934 50.0838 497.703 70.9255 509.985 66.2539C520.77 62.1515 515.957 42.9633 504.015 46.6566z"/>
<path style="fill:#b6b8ba; stroke:none;" d="M510 46L511 47L510 46z"/>
<path style="fill:#babcbf; stroke:none;" d="M535 46L536 47L535 46z"/>
<path style="fill:#9ea0a5; stroke:none;" d="M548 46L549 47L548 46z"/>
<path style="fill:#a9abaf; stroke:none;" d="M555.667 46.3333C555.222 46.7777 556.278 46.7223 556.333 46.6667C556.778 46.2221 555.722 46.2778 555.667 46.3333z"/>
<path style="fill:#a4a6aa; stroke:none;" d="M568 46L569 47L568 46z"/>
<path style="fill:#83d7da; stroke:none;" d="M32 47L33 48L32 47z"/>
<path style="fill:#74d2d6; stroke:none;" d="M82 47L83 48L82 47z"/>
<path style="fill:#8d8f95; stroke:none;" d="M210 47L211 48L210 47z"/>
<path style="fill:#a4a6aa; stroke:none;" d="M222 47L223 48L222 47z"/>
<path style="fill:#cfd1d3; stroke:none;" d="M245 47L246 48L245 47z"/>
<path style="fill:#93959a; stroke:none;" d="M256 47L257 48L256 47z"/>
<path style="fill:#9b9ea2; stroke:none;" d="M268 47L269 48L268 47z"/>
<path style="fill:#c8cacb; stroke:none;" d="M307 47L308 48L307 47z"/>
<path style="fill:#c4c6c8; stroke:none;" d="M335.333 47.6667C335.278 47.7222 335.222 48.7778 335.667 48.3333C335.722 48.2777 335.778 47.2223 335.333 47.6667z"/>
<path style="fill:#a2a5a8; stroke:none;" d="M355 47L356 48L355 47z"/>
<path style="fill:#d0d2d4; stroke:none;" d="M365 47L366 48L365 47z"/>
<path style="fill:#76797e; stroke:none;" d="M380 47L380 50C380.696 48.4463 380.696 48.5537 380 47z"/>
<path style="fill:#919498; stroke:none;" d="M403 47L404 48L403 47z"/>
<path style="fill:#c2c4c7; stroke:none;" d="M414 47L415 48L414 47z"/>
<path style="fill:#c5c6c8; stroke:none;" d="M501 47L502 48L501 47z"/>
<path style="fill:#a4a6aa; stroke:none;" d="M512 47L513 48L512 47z"/>
<path style="fill:#8e9195; stroke:none;" d="M524 47L525 48L524 47z"/>
<path style="fill:#92dcdf; stroke:none;" d="M41 48L42 49L41 48z"/>
<path style="fill:#a6a8ab; stroke:none;" d="M170 48L171 49L170 48z"/>
<path style="fill:#8f9296; stroke:none;" d="M186 48L187 49L186 48z"/>
<path style="fill:#a5a7aa; stroke:none;" d="M211 48L212 49L211 48z"/>
<path style="fill:#999b9f; stroke:none;" d="M232 48L233 49L232 48z"/>
<path style="fill:#aeb0b3; stroke:none;" d="M257 48L258 49L257 48z"/>
<path style="fill:#afb1b4; stroke:none;" d="M306 48L307 49L306 48z"/>
<path style="fill:#b5b7ba; stroke:none;" d="M340 48L341 49L340 48z"/>
<path style="fill:#ced0d2; stroke:none;" d="M350 48L351 49L350 48z"/>
<path style="fill:#7c7f85; stroke:none;" d="M370.333 48.6667C370.278 48.7222 370.222 49.7778 370.667 49.3333C370.722 49.2777 370.778 48.2223 370.333 48.6667z"/>
<path style="fill:#bcbdc0; stroke:none;" d="M393 48L394 49L393 48z"/>
<path style="fill:#c8c9cb; stroke:none;" d="M424 48L425 49L424 48z"/>
<path style="fill:#b1b3b6; stroke:none;" d="M468 48L468 51C468.696 49.4464 468.696 49.5536 468 48z"/>
<path style="fill:#adafb2; stroke:none;" d="M488 48L489 49L488 48z"/>
<path style="fill:#c0c2c4; stroke:none;" d="M513 48L514 49L513 48z"/>
<path style="fill:#b3b4b8; stroke:none;" d="M534 48L535 49L534 48z"/>
<path style="fill:#b7b9bc; stroke:none;" d="M569 48L570 49L569 48z"/>
<path style="fill:#b7e7ea; stroke:none;" d="M31.3333 49.6667C31.2778 49.7222 31.2222 50.7778 31.6667 50.3333C31.7222 50.2778 31.7778 49.2222 31.3333 49.6667z"/>
<path style="fill:#a0e0e3; stroke:none;" d="M60 49C61.506 49.683 62.3148 49.8259 64 50C62.494 49.317 61.6852 49.1741 60 49z"/>
<path style="fill:#88d8dc; stroke:none;" d="M92.3333 49.6667C92.2778 49.7222 92.2222 50.7778 92.6667 50.3333C92.7222 50.2778 92.7778 49.2222 92.3333 49.6667z"/>
<path style="fill:#919398; stroke:none;" d="M172 49L173 50L172 49z"/>
<path style="fill:#8e9196; stroke:none;" d="M212 49L213 50L212 49z"/>
<path style="fill:#bbbdbf; stroke:none;" d="M223 49L224 50L223 49z"/>
<path style="fill:#989b9e; stroke:none;" d="M258 49L259 50L258 49z"/>
<path style="fill:#b4b5b8; stroke:none;" d="M269 49L270 50L269 49z"/>
<path style="fill:#93969a; stroke:none;" d="M294 49L295 50L294 49z"/>
<path style="fill:#94969b; stroke:none;" d="M305 49L306 50L305 49z"/>
<path style="fill:#a9abae; stroke:none;" d="M324.333 49.6667C324.278 49.7222 324.222 50.7778 324.667 50.3333C324.722 50.2777 324.778 49.2223 324.333 49.6667z"/>
<path style="fill:#e2e3e5; stroke:none;" d="M335.333 49.6667C335.278 49.7222 335.222 50.7778 335.667 50.3333C335.722 50.2777 335.778 49.2222 335.333 49.6667z"/>
<path style="fill:#93969a; stroke:none;" d="M350 49L351 50L350 49z"/>
<path style="fill:#989a9f; stroke:none;" d="M364 49L365 50L364 49z"/>
<path style="fill:#bec0c2; stroke:none;" d="M404 49L405 50L404 49z"/>
<path style="fill:#acaeb1; stroke:none;" d="M514 49L515 50L514 49z"/>
<path style="fill:#a5a7ab; stroke:none;" d="M525 49L526 50L525 49z"/>
<path style="fill:#a7e2e5; stroke:none;" d="M58 50L59 51L58 50z"/>
<path style="fill:#19b5bc; stroke:none;" d="M59.1481 51.0324C52.3048 54.9363 59.1942 65.1487 65.5664 60.8202C71.2732 56.9437 65.2524 47.5501 59.1481 51.0324z"/>
<path style="fill:#84d7db; stroke:none;" d="M65 50L66 51L65 50z"/>
<path style="fill:#aee5e7; stroke:none;" d="M83.3333 50.6667C83.2778 50.7222 83.2222 51.7778 83.6667 51.3333C83.7222 51.2778 83.7778 50.2222 83.3333 50.6667z"/>
<path style="fill:#d3d4d5; stroke:none;" d="M185 50L186 51L185 50z"/>
<path style="fill:#bcbdc0; stroke:none;" d="M196 50L197 51L196 50z"/>
<path style="fill:#898b90; stroke:none;" d="M223 50L224 51L223 50z"/>
<path style="fill:#b4b6b9; stroke:none;" d="M242 50L243 51L242 50z"/>
<path style="fill:#818489; stroke:none;" d="M269 50L270 51L269 50z"/>
<path style="fill:#b4b6b8; stroke:none;" d="M293 50L294 51L293 50z"/>
<path style="fill:#7f8287; stroke:none;" d="M304 50L305 51L304 50z"/>
<path style="fill:#9a9da1; stroke:none;" d="M354 50L355 51L354 50z"/>
<path style="fill:#d2d3d5; stroke:none;" d="M364 50L365 51L364 50z"/>
<path style="fill:#9a9ca0; stroke:none;" d="M370.333 50.6667C370.278 50.7222 370.222 51.7778 370.667 51.3333C370.722 51.2777 370.778 50.2223 370.333 50.6667z"/>
<path style="fill:#a4a7aa; stroke:none;" d="M394 50L395 51L394 50z"/>
<path style="fill:#a6a8ac; stroke:none;" d="M413 50L414 51L413 50z"/>
<path style="fill:#adaeb2; stroke:none;" d="M423 50L424 51L423 50z"/>
<path style="fill:#a6a8ac; stroke:none;" d="M498 50L499 51L498 50z"/>
<path style="fill:#aeb0b4; stroke:none;" d="M544 50L545 51L544 50z"/>
<path style="fill:#8a8d92; stroke:none;" d="M560 50L561 51L560 50z"/>
<path style="fill:#91dcdf; stroke:none;" d="M31 51L31 54C31.6961 52.4463 31.6961 52.5537 31 51z"/>
<path style="fill:#c5edee; stroke:none;" d="M40 51L40 58C41.0595 55.4657 41.0595 53.5343 40 51z"/>
<path style="fill:#90dbde; stroke:none;" d="M57 51L58 52L57 51z"/>
<path style="fill:#62ccd2; stroke:none;" d="M66 51L67 52L66 51z"/>
<path style="fill:#62cdd1; stroke:none;" d="M92.3333 51.6667C92.2778 51.7222 92.2222 52.7778 92.6667 52.3333C92.7222 52.2778 92.7778 51.2222 92.3333 51.6667z"/>
<path style="fill:#767a7f; stroke:none;" d="M185.333 51.6667C185.278 51.7222 185.222 52.7778 185.667 52.3333C185.722 52.2777 185.778 51.2222 185.333 51.6667z"/>
<path style="fill:#b1b3b6; stroke:none;" d="M213 51L214 52L213 51z"/>
<path style="fill:#808388; stroke:none;" d="M231.333 51.6667C231.278 51.7222 231.222 52.7778 231.667 52.3333C231.722 52.2777 231.778 51.2222 231.333 51.6667z"/>
<path style="fill:#babcbf; stroke:none;" d="M259 51L260 52L259 51z"/>
<path style="fill:#cecfd1; stroke:none;" d="M292 51L293 52L292 51z"/>
<path style="fill:#8a8e92; stroke:none;" d="M324 51L324 54C324.696 52.4463 324.696 52.5537 324 51z"/>
<path style="fill:#b6b8bb; stroke:none;" d="M341 51L342 52L341 51z"/>
<path style="fill:#cacbcd; stroke:none;" d="M351 51L352 52L351 51z"/>
<path style="fill:#96989d; stroke:none;" d="M468 51L468 54C468.696 52.4464 468.696 52.5536 468 51z"/>
<path style="fill:#95989c; stroke:none;" d="M487.333 51.6667C487.278 51.7222 487.222 52.7778 487.667 52.3333C487.722 52.2777 487.778 51.2223 487.333 51.6667z"/>
<path style="fill:#cdced0; stroke:none;" d="M515 51L516 52L515 51z"/>
<path style="fill:#929499; stroke:none;" d="M533.333 51.6667C533.278 51.7224 533.222 52.7777 533.667 52.3333C533.722 52.2779 533.778 51.2221 533.333 51.6667z"/>
<path style="fill:#cacbce; stroke:none;" d="M560 51L561 52L560 51z"/>
<path style="fill:#86898f; stroke:none;" d="M562 51C563.248 51.6848 563.548 51.7488 565 52C563.752 51.3152 563.452 51.2512 562 51z"/>
<path style="fill:#bbbdbf; stroke:none;" d="M565.667 51.3333C565.222 51.7776 566.278 51.7223 566.333 51.6667C566.778 51.2221 565.722 51.2779 565.667 51.3333z"/>
<path style="fill:#dfe0e1; stroke:none;" d="M567.667 51.3333C567.222 51.7777 568.278 51.7222 568.333 51.6667C568.778 51.2221 567.722 51.2778 567.667 51.3333z"/>
<path style="fill:#ace4e7; stroke:none;" d="M56 52L57 53L56 52z"/>
<path style="fill:#75d3d7; stroke:none;" d="M67 52L68 53L67 52z"/>
<path style="fill:#a7a9ac; stroke:none;" d="M151 52C154.163 53.3274 157.586 52.9996 161 53C157.837 51.6726 154.414 52.0004 151 52z"/>
<path style="fill:#6b6f75; stroke:none;" d="M161.667 52.3333C161.222 52.7778 162.278 52.7222 162.333 52.6667C162.778 52.2223 161.722 52.2778 161.667 52.3333z"/>
<path style="fill:#7e8186; stroke:none;" d="M175 52L176 53L175 52z"/>
<path style="fill:#cdcfd1; stroke:none;" d="M195.333 52.6667C195.278 52.7222 195.222 53.7778 195.667 53.3333C195.722 53.2778 195.778 52.2222 195.333 52.6667z"/>
<path style="fill:#c9cbcc; stroke:none;" d="M224.333 52.6667C224.278 52.7222 224.222 53.7778 224.667 53.3333C224.722 53.2777 224.778 52.2223 224.333 52.6667z"/>
<path style="fill:#c6c7c9; stroke:none;" d="M241.333 52.6667C241.278 52.7222 241.222 53.7778 241.667 53.3333C241.722 53.2777 241.778 52.2222 241.333 52.6667z"/>
<path style="fill:#c1c3c6; stroke:none;" d="M270.333 52.6667C270.278 52.7222 270.222 53.7778 270.667 53.3333C270.722 53.2777 270.778 52.2223 270.333 52.6667z"/>
<path style="fill:#7d8085; stroke:none;" d="M290.667 52.3333C290.222 52.7777 291.278 52.7222 291.333 52.6667C291.778 52.2222 290.722 52.2777 290.667 52.3333z"/>
<path style="fill:#8f9297; stroke:none;" d="M351 52L352 53L351 52z"/>
<path style="fill:#d0d1d3; stroke:none;" d="M353 52L354 53L353 52z"/>
<path style="fill:#9b9da1; stroke:none;" d="M363 52L364 53L363 52z"/>
<path style="fill:#b8b9bc; stroke:none;" d="M370.333 52.6667C370.278 52.7222 370.222 53.7778 370.667 53.3333C370.722 53.2777 370.778 52.2223 370.333 52.6667z"/>
<path style="fill:#dadbdc; stroke:none;" d="M381.333 52.6667C381.278 52.7222 381.222 53.7778 381.667 53.3333C381.722 53.2777 381.778 52.2223 381.333 52.6667z"/>
<path style="fill:#8d9095; stroke:none;" d="M395 52L396 53L395 52z"/>
<path style="fill:#acafb2; stroke:none;" d="M405 52L406 53L405 52z"/>
<path style="fill:#cbccce; stroke:none;" d="M412 52L413 53L412 52z"/>
<path style="fill:#92959a; stroke:none;" d="M422 52L423 53L422 52z"/>
<path style="fill:#bbbcbf; stroke:none;" d="M479 52L479 55C479.696 53.4463 479.696 53.5537 479 52z"/>
<path style="fill:#b7b8bb; stroke:none;" d="M497.333 52.6667C497.278 52.7222 497.222 53.7778 497.667 53.3333C497.722 53.2777 497.778 52.2222 497.333 52.6667z"/>
<path style="fill:#b2b4b7; stroke:none;" d="M526 52L526 55C526.696 53.4463 526.696 53.5537 526 52z"/>
<path style="fill:#b3b4b8; stroke:none;" d="M543.333 52.6667C543.278 52.7224 543.222 53.7777 543.667 53.3333C543.722 53.2779 543.778 52.2221 543.333 52.6667z"/>
<path style="fill:#88d8dd; stroke:none;" d="M68.3333 53.6667C68.2778 53.7222 68.2222 54.7778 68.6667 54.3333C68.7222 54.2778 68.7778 53.2222 68.3333 53.6667z"/>
<path style="fill:#cacbce; stroke:none;" d="M151 53L151 65C152.512 61.3957 152.512 56.6043 151 53z"/>
<path style="fill:#ffffff; stroke:none;" d="M152 53L152 65C155.739 65 161.417 66.0002 164.682 63.821C168.099 61.5404 167.536 55.4087 163.852 53.7423C160.466 52.2107 155.632 53 152 53z"/>
<path style="fill:#a9abaf; stroke:none;" d="M164 53L165 54L164 53z"/>
<path style="fill:#b2b4b7; stroke:none;" d="M176 53L177 54L176 53z"/>
<path style="fill:#96989d; stroke:none;" d="M260.333 53.6667C260.278 53.7222 260.222 54.7778 260.667 54.3333C260.722 54.2778 260.778 53.2223 260.333 53.6667z"/>
<path style="fill:#73767d; stroke:none;" d="M334.333 53.6667C334.278 53.7222 334.222 54.7778 334.667 54.3333C334.722 54.2778 334.778 53.2223 334.333 53.6667z"/>
<path style="fill:#94979b; stroke:none;" d="M353 53L354 54L353 53z"/>
<path style="fill:#878a8f; stroke:none;" d="M412 53L413 54L412 53z"/>
<path style="fill:#abadb0; stroke:none;" d="M516.333 53.6667C516.278 53.7223 516.222 54.7778 516.667 54.3333C516.722 54.2778 516.778 53.2222 516.333 53.6667z"/>
<path style="fill:#56c9ce; stroke:none;" d="M31 54L31 57C31.6961 55.4463 31.6961 55.5537 31 54z"/>
<path style="fill:#b7e7ea; stroke:none;" d="M55 54L55 58C55.7102 56.2405 55.7102 55.7595 55 54z"/>
<path style="fill:#a1a4a7; stroke:none;" d="M214 54L214 59C214.83 56.9695 214.83 56.0305 214 54M224 54L224 58C224.71 56.2406 224.71 55.7594 224 54z"/>
<path style="fill:#9b9da1; stroke:none;" d="M270 54L270 58C270.71 56.2405 270.71 55.7595 270 54z"/>
<path style="fill:#c4c4c7; stroke:none;" d="M301 54L302 55L301 54z"/>
<path style="fill:#b8babd; stroke:none;" d="M342 54L343 55L342 54z"/>
<path style="fill:#c1c3c6; stroke:none;" d="M352 54L353 55L352 54z"/>
<path style="fill:#d6d8d9; stroke:none;" d="M370.333 54.6667C370.278 54.7222 370.222 55.7778 370.667 55.3333C370.722 55.2778 370.778 54.2223 370.333 54.6667z"/>
<path style="fill:#bec0c2; stroke:none;" d="M381.333 54.6667C381.278 54.7222 381.222 55.7778 381.667 55.3333C381.722 55.2777 381.778 54.2223 381.333 54.6667z"/>
<path style="fill:#e3e4e5; stroke:none;" d="M497 54L497 59C497.83 56.9695 497.83 56.0305 497 54z"/>
<path style="fill:#dbdcde; stroke:none;" d="M543 54L543 59C543.83 56.9695 543.83 56.0305 543 54z"/>
<path style="fill:#63cdd2; stroke:none;" d="M68 55L68 58C68.6961 56.4463 68.6961 56.5537 68 55z"/>
<path style="fill:#a3a5a9; stroke:none;" d="M177.333 55.6667C177.278 55.7222 177.222 56.7778 177.667 56.3333C177.722 56.2778 177.778 55.2222 177.333 55.6667z"/>
<path style="fill:#b4b6b9; stroke:none;" d="M260 55L260 59C260.71 57.2405 260.71 56.7595 260 55z"/>
<path style="fill:#919498; stroke:none;" d="M334 55L334 58C334.696 56.4463 334.696 56.5537 334 55z"/>
<path style="fill:#9d9ea3; stroke:none;" d="M362 55L363 56L362 55z"/>
<path style="fill:#c0c1c4; stroke:none;" d="M396 55L397 56L396 55z"/>
<path style="fill:#9c9ea2; stroke:none;" d="M406 55L407 56L406 55z"/>
<path style="fill:#adb0b2; stroke:none;" d="M411 55L412 56L411 55z"/>
<path style="fill:#bfc1c3; stroke:none;" d="M421 55L422 56L421 55z"/>
<path style="fill:#c8c9cb; stroke:none;" d="M516 55L516 59C516.71 57.2405 516.71 56.7595 516 55z"/>
<path style="fill:#81858a; stroke:none;" d="M526 55L526 58C526.696 56.4463 526.696 56.5537 526 55z"/>
<path style="fill:#8a8c92; stroke:none;" d="M167 56L168 57L167 56z"/>
<path style="fill:#82868b; stroke:none;" d="M301 56L302 57L301 56z"/>
<path style="fill:#808489; stroke:none;" d="M343 56L344 57L343 56z"/>
<path style="fill:#a1a3a7; stroke:none;" d="M381 56L381 59C381.696 57.4463 381.696 57.5537 381 56z"/>
<path style="fill:#a3a5a9; stroke:none;" d="M467 56L468 57L467 56z"/>
<path style="fill:#87d8dc; stroke:none;" d="M31 57L31 60C31.6961 58.4463 31.6961 58.5537 31 57z"/>
<path style="fill:#45c3c9; stroke:none;" d="M92 57L92 60C92.6961 58.4463 92.6961 58.5537 92 57z"/>
<path style="fill:#d3d3d5; stroke:none;" d="M167 57L167 61C167.71 59.2405 167.71 58.7595 167 57z"/>
<path style="fill:#dfe0e2; stroke:none;" d="M241 57L241 60C241.696 58.4463 241.696 58.5537 241 57z"/>
<path style="fill:#a2a4a8; stroke:none;" d="M302 57L303 58L302 57z"/>
<path style="fill:#e1e1e2; stroke:none;" d="M323.333 57.6667C323.278 57.7222 323.222 58.7778 323.667 58.3333C323.722 58.2778 323.778 57.2222 323.333 57.6667z"/>
<path style="fill:#babcbf; stroke:none;" d="M343 57L344 58L343 57z"/>
<path style="fill:#a8aaae; stroke:none;" d="M397 57L398 58L397 57z"/>
<path style="fill:#c9cacc; stroke:none;" d="M407 57L408 58L407 57z"/>
<path style="fill:#d3d4d5; stroke:none;" d="M410 57L411 58L410 57z"/>
<path style="fill:#a4a6aa; stroke:none;" d="M420 57L421 58L420 57z"/>
<path style="fill:#8f9196; stroke:none;" d="M478 57L479 58L478 57z"/>
<path style="fill:#88d9dc; stroke:none;" d="M40 58L40 62C40.7102 60.2405 40.7102 59.7595 40 58z"/>
<path style="fill:#c2c3c5; stroke:none;" d="M224 58L224 61C224.696 59.4463 224.696 59.5537 224 58z"/>
<path style="fill:#75797e; stroke:none;" d="M231 58L231 61C231.696 59.4463 231.696 59.5537 231 58z"/>
<path style="fill:#babcbf; stroke:none;" d="M270 58L270 61C270.696 59.4463 270.696 59.5537 270 58z"/>
<path style="fill:#c4c5c8; stroke:none;" d="M303 58L304 59L303 58z"/>
<path style="fill:#c0c2c4; stroke:none;" d="M334.333 58.6667C334.278 58.7222 334.222 59.7778 334.667 59.3333C334.722 59.2778 334.778 58.2223 334.333 58.6667z"/>
<path style="fill:#9ea1a5; stroke:none;" d="M361 58L362 59L361 58z"/>
<path style="fill:#8b8d92; stroke:none;" d="M407 58L408 59L407 58z"/>
<path style="fill:#909298; stroke:none;" d="M410 58L411 59L410 58z"/>
<path style="fill:#c6c7ca; stroke:none;" d="M466 58L467 59L466 58z"/>
<path style="fill:#c2c3c6; stroke:none;" d="M478 58L479 59L478 58z"/>
<path style="fill:#8b8e93; stroke:none;" d="M487 58L487 61C487.696 59.4463 487.696 59.5537 487 58z"/>
<path style="fill:#abaeb1; stroke:none;" d="M526 58L526 61C526.696 59.4463 526.696 59.5537 526 58z"/>
<path style="fill:#898c91; stroke:none;" d="M533 58L533 61C533.696 59.4463 533.696 59.5537 533 58z"/>
<path style="fill:#a4e2e4; stroke:none;" d="M56 59L57 60L56 59z"/>
<path style="fill:#6ed0d4; stroke:none;" d="M67 59L68 60L67 59z"/>
<path style="fill:#7f8287; stroke:none;" d="M185 59L185 62C185.696 60.4463 185.696 60.5537 185 59z"/>
<path style="fill:#9fa2a5; stroke:none;" d="M195.333 59.6667C195.278 59.7222 195.222 60.7778 195.667 60.3333C195.722 60.2777 195.778 59.2222 195.333 59.6667z"/>
<path style="fill:#dcdcdd; stroke:none;" d="M290 59L290 75C292.04 70.1394 290.761 64.206 292 59L290 59z"/>
<path style="fill:#a1a4a7; stroke:none;" d="M292 59L293 60L292 59z"/>
<path style="fill:#c4c5c7; stroke:none;" d="M323 59L323 62C323.696 60.4463 323.696 60.5537 323 59z"/>
<path style="fill:#81858a; stroke:none;" d="M344 59L345 60L344 59z"/>
<path style="fill:#767a7f; stroke:none;" d="M371 59L371 62C371.696 60.4463 371.696 60.5537 371 59z"/>
<path style="fill:#767a80; stroke:none;" d="M381.333 59.6667C381.278 59.7222 381.222 60.7778 381.667 60.3333C381.722 60.2777 381.778 59.2223 381.333 59.6667z"/>
<path style="fill:#919499; stroke:none;" d="M398 59L399 60L398 59z"/>
<path style="fill:#898c91; stroke:none;" d="M419 59L420 60L419 59M497.333 59.6667C497.278 59.7222 497.222 60.7778 497.667 60.3333C497.722 60.2777 497.778 59.2223 497.333 59.6667z"/>
<path style="fill:#888c90; stroke:none;" d="M543.333 59.6667C543.278 59.7224 543.222 60.7777 543.667 60.3333C543.722 60.2779 543.778 59.2221 543.333 59.6667z"/>
<path style="fill:#c0ebed; stroke:none;" d="M31.3333 60.6667C31.2778 60.7222 31.2222 61.7778 31.6667 61.3333C31.7222 61.2778 31.7778 60.2222 31.3333 60.6667z"/>
<path style="fill:#87d8dc; stroke:none;" d="M57 60L58 61L57 60z"/>
<path style="fill:#6acfd4; stroke:none;" d="M83.3333 60.6667C83.2778 60.7223 83.2222 61.7778 83.6667 61.3333C83.7222 61.2778 83.7778 60.2222 83.3333 60.6667z"/>
<path style="fill:#7ed5d9; stroke:none;" d="M92 60L92 63C92.6961 61.4463 92.6961 61.5537 92 60z"/>
<path style="fill:#989b9e; stroke:none;" d="M241 60L242 61L241 60z"/>
<path style="fill:#84868c; stroke:none;" d="M293 60L294 61L293 60z"/>
<path style="fill:#dfdfe0; stroke:none;" d="M334 60L334 63C334.696 61.4463 334.696 61.5537 334 60z"/>
<path style="fill:#bcbec0; stroke:none;" d="M344 60L345 61L344 60z"/>
<path style="fill:#b6b7bb; stroke:none;" d="M408.667 60.3333C408.222 60.7777 409.278 60.7222 409.333 60.6667C409.778 60.2222 408.722 60.2777 408.667 60.3333z"/>
<path style="fill:#d2d3d5; stroke:none;" d="M419 60L420 61L419 60z"/>
<path style="fill:#96989d; stroke:none;" d="M465 60L466 61L465 60z"/>
<path style="fill:#909397; stroke:none;" d="M477 60L478 61L477 60z"/>
<path style="fill:#9bdfe2; stroke:none;" d="M58 61L59 62L58 61z"/>
<path style="fill:#79d4d8; stroke:none;" d="M65 61L66 62L65 61z"/>
<path style="fill:#8b8e92; stroke:none;" d="M167 61L168 62L167 61z"/>
<path style="fill:#b2b4b7; stroke:none;" d="M213 61L214 62L213 61z"/>
<path style="fill:#afb0b4; stroke:none;" d="M231 61L232 62L231 61z"/>
<path style="fill:#babcbf; stroke:none;" d="M259 61L260 62L259 61z"/>
<path style="fill:#a0a3a6; stroke:none;" d="M360 61L361 62L360 61z"/>
<path style="fill:#72757b; stroke:none;" d="M408.667 61.3333C408.222 61.7777 409.278 61.7222 409.333 61.6667C409.778 61.2222 408.722 61.2777 408.667 61.3333z"/>
<path style="fill:#abadb1; stroke:none;" d="M464 61L465 62L464 61z"/>
<path style="fill:#d1d2d4; stroke:none;" d="M477 61L478 62L477 61z"/>
<path style="fill:#c2c4c7; stroke:none;" d="M487 61L488 62L487 61z"/>
<path style="fill:#ced0d2; stroke:none;" d="M515 61L516 62L515 61z"/>
<path style="fill:#c8c9cb; stroke:none;" d="M533 61L534 62L533 61z"/>
<path style="fill:#bdbec1; stroke:none;" d="M560 61L561 62L560 61z"/>
<path style="fill:#7f8388; stroke:none;" d="M564 61C565.248 61.6848 565.548 61.7488 567 62C565.752 61.3153 565.451 61.2512 564 61z"/>
<path style="fill:#b5b7ba; stroke:none;" d="M567 61C568.249 61.6849 568.548 61.7488 570 62C568.752 61.3153 568.451 61.2512 567 61z"/>
<path style="fill:#90dbdf; stroke:none;" d="M60 62C61.506 62.683 62.3148 62.8259 64 63C62.494 62.317 61.6852 62.1741 60 62z"/>
<path style="fill:#babcbe; stroke:none;" d="M196 62L197 63L196 62z"/>
<path style="fill:#81848a; stroke:none;" d="M223 62L224 63L223 62z"/>
<path style="fill:#b2b4b8; stroke:none;" d="M242 62L243 63L242 62z"/>
<path style="fill:#9a9ba0; stroke:none;" d="M306 62L307 63L306 62z"/>
<path style="fill:#989b9f; stroke:none;" d="M323 62L323 65C323.696 63.4463 323.696 63.5537 323 62z"/>
<path style="fill:#84878b; stroke:none;" d="M345 62L346 63L345 62z"/>
<path style="fill:#a3a5a9; stroke:none;" d="M371.333 62.6667C371.278 62.7222 371.222 63.7778 371.667 63.3333C371.722 63.2777 371.778 62.2223 371.333 62.6667z"/>
<path style="fill:#c4c6c9; stroke:none;" d="M399 62L400 63L399 62z"/>
<path style="fill:#b8b9bc; stroke:none;" d="M418 62L419 63L418 62z"/>
<path style="fill:#adafb3; stroke:none;" d="M463 62L464 63L463 62z"/>
<path style="fill:#a4a6aa; stroke:none;" d="M498 62L499 63L498 62z"/>
<path style="fill:#aeafb3; stroke:none;" d="M544 62L545 63L544 62z"/>
<path style="fill:#95dce0; stroke:none;" d="M41 63L42 64L41 63z"/>
<path style="fill:#7f8288; stroke:none;" d="M177 63L178 64L177 63z"/>
<path style="fill:#8c8f94; stroke:none;" d="M212 63L213 64L212 63z"/>
<path style="fill:#b4b6b9; stroke:none;" d="M223 63L224 64L223 63z"/>
<path style="fill:#95989c; stroke:none;" d="M258 63L259 64L258 63z"/>
<path style="fill:#adafb2; stroke:none;" d="M269 63L270 64L269 63z"/>
<path style="fill:#b5b7bb; stroke:none;" d="M295 63L296 64L295 63z"/>
<path style="fill:#bbbcbf; stroke:none;" d="M307 63L308 64L307 63z"/>
<path style="fill:#bebfc2; stroke:none;" d="M345 63L346 64L345 63z"/>
<path style="fill:#cccdd0; stroke:none;" d="M461 63L462 64L461 63z"/>
<path style="fill:#c5c7ca; stroke:none;" d="M476 63L477 64L476 63z"/>
<path style="fill:#aaacb0; stroke:none;" d="M514 63L515 64L514 63z"/>
<path style="fill:#9ea1a4; stroke:none;" d="M525 63L526 64L525 63z"/>
<path style="fill:#c0c2c5; stroke:none;" d="M559 63L560 64L559 63z"/>
<path style="fill:#888a8f; stroke:none;" d="M569 63L570 64L569 63z"/>
<path style="fill:#beeaec; stroke:none;" d="M32.3333 64.6667C32.2778 64.7222 32.2222 65.7778 32.6667 65.3333C32.7222 65.2778 32.7778 64.2222 32.3333 64.6667z"/>
<path style="fill:#67ced3; stroke:none;" d="M82 64L83 65L82 64z"/>
<path style="fill:#9da0a3; stroke:none;" d="M164 64L165 65L164 64z"/>
<path style="fill:#aeb0b3; stroke:none;" d="M177 64L178 65L177 64z"/>
<path style="fill:#989a9e; stroke:none;" d="M186 64L187 65L186 64z"/>
<path style="fill:#a1a4a7; stroke:none;" d="M211 64L212 65L211 64z"/>
<path style="fill:#a1a3a7; stroke:none;" d="M232 64L233 65L232 64z"/>
<path style="fill:#aaabaf; stroke:none;" d="M257 64L258 65L257 64z"/>
<path style="fill:#8c8e93; stroke:none;" d="M296 64L297 65L296 64z"/>
<path style="fill:#a3a6a9; stroke:none;" d="M359 64L360 65L359 64z"/>
<path style="fill:#c1c2c5; stroke:none;" d="M371.333 64.6667C371.278 64.7222 371.222 65.7778 371.667 65.3333C371.722 65.2778 371.778 64.2223 371.333 64.6667z"/>
<path style="fill:#dcddde; stroke:none;" d="M382 64L382 67C382.696 65.4463 382.696 65.5537 382 64z"/>
<path style="fill:#adb0b2; stroke:none;" d="M400 64L401 65L400 64z"/>
<path style="fill:#9d9fa3; stroke:none;" d="M417 64L418 65L417 64z"/>
<path style="fill:#c5c6c8; stroke:none;" d="M458 64L459 65L458 64z"/>
<path style="fill:#96989d; stroke:none;" d="M459 64L460 65L459 64z"/>
<path style="fill:#868a8f; stroke:none;" d="M475 64L476 65L475 64z"/>
<path style="fill:#b3b6b8; stroke:none;" d="M488 64L489 65L488 64z"/>
<path style="fill:#bdbec1; stroke:none;" d="M513 64L514 65L513 64z"/>
<path style="fill:#bdbfc1; stroke:none;" d="M534 64L535 65L534 64z"/>
<path style="fill:#bcbec0; stroke:none;" d="M569 64L570 65L569 64z"/>
<path style="fill:#b7e8ea; stroke:none;" d="M42 65L43 66L42 65z"/>
<path style="fill:#c4ecee; stroke:none;" d="M91.3333 65.6667C91.2778 65.7222 91.2222 66.7778 91.6667 66.3333C91.7222 66.2778 91.7778 65.2222 91.3333 65.6667z"/>
<path style="fill:#a7a8ac; stroke:none;" d="M151 65C154.432 66.4403 158.3 66 162 66C158.568 64.5597 154.7 65 151 65z"/>
<path style="fill:#888b8f; stroke:none;" d="M210 65L211 66L210 65z"/>
<path style="fill:#9ea0a5; stroke:none;" d="M222 65L223 66L222 65z"/>
<path style="fill:#d3d4d6; stroke:none;" d="M245 65L246 66L245 65z"/>
<path style="fill:#8f9296; stroke:none;" d="M256 65L257 66L256 65z"/>
<path style="fill:#979a9e; stroke:none;" d="M268 65L269 66L268 65z"/>
<path style="fill:#6d7076; stroke:none;" d="M323.333 65.6667C323.278 65.7222 323.222 66.7778 323.667 66.3333C323.722 66.2778 323.778 65.2222 323.333 65.6667z"/>
<path style="fill:#7e8287; stroke:none;" d="M333.333 65.6667C333.278 65.7222 333.222 66.7778 333.667 66.3333C333.722 66.2777 333.778 65.2222 333.333 65.6667z"/>
<path style="fill:#84888d; stroke:none;" d="M346 65L347 66L346 65z"/>
<path style="fill:#7f8388; stroke:none;" d="M448 65C450.613 66.0977 453.165 65.9928 456 66C453.387 64.9023 450.836 65.0072 448 65z"/>
<path style="fill:#c7c8ca; stroke:none;" d="M501 65L502 66L501 65z"/>
<path style="fill:#9fa0a4; stroke:none;" d="M512 65L513 66L512 65z"/>
<path style="fill:#8a8d92; stroke:none;" d="M524 65L525 66L524 65z"/>
<path style="fill:#c3c4c6; stroke:none;" d="M557 65L558 66L557 65z"/>
<path style="fill:#74d2d7; stroke:none;" d="M81 66L82 67L81 66z"/>
<path style="fill:#afb1b4; stroke:none;" d="M187 66L188 67L187 66z"/>
<path style="fill:#8e9296; stroke:none;" d="M200 66L201 67L200 66z"/>
<path style="fill:#a7aaae; stroke:none;" d="M208 66L209 67L208 66z"/>
<path style="fill:#b7b9bc; stroke:none;" d="M233 66L234 67L233 66z"/>
<path style="fill:#8d9094; stroke:none;" d="M246 66L247 67L246 66z"/>
<path style="fill:#cdcecf; stroke:none;" d="M247 66L248 67L247 66z"/>
<path style="fill:#abacb0; stroke:none;" d="M254 66L255 67L254 66z"/>
<path style="fill:#c0c2c5; stroke:none;" d="M346 66L347 67L346 66z"/>
<path style="fill:#dedfe0; stroke:none;" d="M371 66L371 69C371.696 67.4463 371.696 67.5537 371 66z"/>
<path style="fill:#95979c; stroke:none;" d="M401 66L402 67L401 66z"/>
<path style="fill:#82858a; stroke:none;" d="M416 66L417 67L416 66z"/>
<path style="fill:#cacbce; stroke:none;" d="M489 66L490 67L489 66z"/>
<path style="fill:#86898e; stroke:none;" d="M502 66L503 67L502 66z"/>
<path style="fill:#c9cbcd; stroke:none;" d="M503 66L504 67L503 66z"/>
<path style="fill:#b4b6b9; stroke:none;" d="M510 66L511 67L510 66z"/>
<path style="fill:#d1d3d5; stroke:none;" d="M535 66L536 67L535 66z"/>
<path style="fill:#9fa2a6; stroke:none;" d="M548 66L549 67L548 66z"/>
<path style="fill:#c4c5c8; stroke:none;" d="M555 66L556 67L555 66z"/>
<path style="fill:#b0b2b5; stroke:none;" d="M568 66L569 67L568 66z"/>
<path style="fill:#5ecbd1; stroke:none;" d="M33 67L34 68L33 67z"/>
<path style="fill:#86d8dc; stroke:none;" d="M43 67L44 68L43 67z"/>
<path style="fill:#b0e5e8; stroke:none;" d="M80 67L81 68L80 67z"/>
<path style="fill:#cacbce; stroke:none;" d="M176 67L177 68L176 67z"/>
<path style="fill:#c4c5c8; stroke:none;" d="M221 67L222 68L221 67z"/>
<path style="fill:#bdbfc1; stroke:none;" d="M267 67L268 68L267 67z"/>
<path style="fill:#c1c3c6; stroke:none;" d="M298 67L299 68L298 67z"/>
<path style="fill:#8f9196; stroke:none;" d="M310 67L311 68L310 67z"/>
<path style="fill:#9d9ea3; stroke:none;" d="M333 67L333 70C333.696 68.4463 333.696 68.5537 333 67z"/>
<path style="fill:#a5a7ab; stroke:none;" d="M358 67L359 68L358 67z"/>
<path style="fill:#b0b2b5; stroke:none;" d="M382 67L382 70C382.696 68.4463 382.696 68.5537 382 67z"/>
<path style="fill:#c9cacd; stroke:none;" d="M416 67L417 68L416 67z"/>
<path style="fill:#c5c5c8; stroke:none;" d="M473 67L474 68L473 67z"/>
<path style="fill:#878b8f; stroke:none;" d="M490 67L491 68L490 67z"/>
<path style="fill:#adafb2; stroke:none;" d="M523 67L524 68L523 67z"/>
<path style="fill:#94979b; stroke:none;" d="M536 67L537 68L536 67z"/>
<path style="fill:#93dce0; stroke:none;" d="M90 68L91 69L90 68z"/>
<path style="fill:#a4a6aa; stroke:none;" d="M220 68L221 69L220 68z"/>
<path style="fill:#9ea0a4; stroke:none;" d="M266 68L267 69L266 68z"/>
<path style="fill:#96999d; stroke:none;" d="M299 68L300 69L299 68z"/>
<path style="fill:#b0b2b6; stroke:none;" d="M311 68L312 69L311 68z"/>
<path style="fill:#878a8f; stroke:none;" d="M347 68L348 69L347 68z"/>
<path style="fill:#b9bbbe; stroke:none;" d="M472 68L473 69L472 68z"/>
<path style="fill:#8e9196; stroke:none;" d="M522 68L523 69L522 68z"/>
<path style="fill:#78d3d8; stroke:none;" d="M34 69L35 70L34 69z"/>
<path style="fill:#8c8f93; stroke:none;" d="M219 69L220 70L219 69z"/>
<path style="fill:#86888e; stroke:none;" d="M265 69L266 70L265 69z"/>
<path style="fill:#cfd0d2; stroke:none;" d="M312 69L313 70L312 69z"/>
<path style="fill:#dfe0e0; stroke:none;" d="M322.333 69.6667C322.278 69.7222 322.222 70.7778 322.667 70.3333C322.722 70.2777 322.778 69.2223 322.333 69.6667z"/>
<path style="fill:#c1c2c5; stroke:none;" d="M347 69L348 70L347 69z"/>
<path style="fill:#c7c9cc; stroke:none;" d="M402 69L403 70L402 69z"/>
<path style="fill:#afb1b4; stroke:none;" d="M415 69L416 70L415 69z"/>
<path style="fill:#cacbcd; stroke:none;" d="M471 69L472 70L471 69z"/>
<path style="fill:#bfc1c4; stroke:none;" d="M566 69L567 70L566 69z"/>
<path style="fill:#ace4e7; stroke:none;" d="M89 70L90 71L89 70z"/>
<path style="fill:#d3d4d5; stroke:none;" d="M190 70L191 71L190 70z"/>
<path style="fill:#8c8f93; stroke:none;" d="M218 70L219 71L218 70z"/>
<path style="fill:#878b8f; stroke:none;" d="M264 70L265 71L264 70z"/>
<path style="fill:#cacbcd; stroke:none;" d="M333 70L333 73C333.696 71.4463 333.696 71.5537 333 70z"/>
<path style="fill:#a6a9ad; stroke:none;" d="M357 70L358 71L357 70z"/>
<path style="fill:#85898d; stroke:none;" d="M382 70L382 73C382.696 71.4463 382.696 71.5537 382 70z"/>
<path style="fill:#92969a; stroke:none;" d="M469 70L470 71L469 70z"/>
<path style="fill:#cbcbce; stroke:none;" d="M565 70L566 71L565 70z"/>
<path style="fill:#92dcdf; stroke:none;" d="M35 71L36 72L35 71z"/>
<path style="fill:#5fcbd1; stroke:none;" d="M88 71L89 72L88 71z"/>
<path style="fill:#81858a; stroke:none;" d="M172 71L173 72L172 71z"/>
<path style="fill:#b5b6ba; stroke:none;" d="M217 71L218 72L217 71z"/>
<path style="fill:#aeb0b3; stroke:none;" d="M263 71L264 72L263 71z"/>
<path style="fill:#c9c9cc; stroke:none;" d="M301 71L302 72L301 71z"/>
<path style="fill:#c2c4c6; stroke:none;" d="M322 71L322 75C322.71 73.2405 322.71 72.7595 322 71z"/>
<path style="fill:#888c90; stroke:none;" d="M348 71L349 72L348 71z"/>
<path style="fill:#7d8086; stroke:none;" d="M372 71L372 74C372.696 72.4464 372.696 72.5536 372 71z"/>
<path style="fill:#b0b2b5; stroke:none;" d="M403 71L404 72L403 71z"/>
<path style="fill:#93959a; stroke:none;" d="M414 71L415 72L414 71z"/>
<path style="fill:#d0d2d4; stroke:none;" d="M468 71L469 72L468 71z"/>
<path style="fill:#868a8f; stroke:none;" d="M494 71L495 72L494 71z"/>
<path style="fill:#a5a6ab; stroke:none;" d="M519 71L520 72L519 71z"/>
<path style="fill:#93959a; stroke:none;" d="M540 71L541 72L540 71z"/>
<path style="fill:#62ccd1; stroke:none;" d="M47 72L48 73L47 72z"/>
<path style="fill:#bcbec1; stroke:none;" d="M171 72L172 73L171 72z"/>
<path style="fill:#a2a5a8; stroke:none;" d="M193 72L194 73L193 72z"/>
<path style="fill:#a8a9ad; stroke:none;" d="M239 72L240 73L239 72z"/>
<path style="fill:#a1a3a7; stroke:none;" d="M302 72L303 73L302 72z"/>
<path style="fill:#86898e; stroke:none;" d="M314 72L315 73L314 72z"/>
<path style="fill:#c3c5c7; stroke:none;" d="M348 72L349 73L348 72z"/>
<path style="fill:#92969a; stroke:none;" d="M465 72L466 73L465 72z"/>
<path style="fill:#d3d4d6; stroke:none;" d="M466 72L467 73L466 72z"/>
<path style="fill:#b3b6b8; stroke:none;" d="M495 72L496 73L495 72z"/>
<path style="fill:#cdced0; stroke:none;" d="M518 72L519 73L518 72z"/>
<path style="fill:#c5c7ca; stroke:none;" d="M541 72L542 73L541 72z"/>
<path style="fill:#b7b9bc; stroke:none;" d="M562 72L563 73L562 72z"/>
<path style="fill:#aae4e7; stroke:none;" d="M49 73L50 74L49 73z"/>
<path style="fill:#5fccd0; stroke:none;" d="M75 73L76 74L75 73z"/>
<path style="fill:#88d9dd; stroke:none;" d="M87 73L88 74L87 73z"/>
<path style="fill:#8f9297; stroke:none;" d="M168 73L169 74L168 73z"/>
<path style="fill:#c9cacc; stroke:none;" d="M169 73L170 74L169 73z"/>
<path style="fill:#b1b3b6; stroke:none;" d="M195 73L196 74L195 73z"/>
<path style="fill:#8c8f93; stroke:none;" d="M213 73L214 74L213 73z"/>
<path style="fill:#b5b7ba; stroke:none;" d="M241 73L242 74L241 73z"/>
<path style="fill:#898d91; stroke:none;" d="M259 73L260 74L259 73z"/>
<path style="fill:#a9aaae; stroke:none;" d="M315 73C311.343 74.0809 307.801 73.9996 304 74C305.957 75.1278 316.371 76.3219 315 73z"/>
<path style="fill:#a9abaf; stroke:none;" d="M356 73L357 74L356 73z"/>
<path style="fill:#b0b2b5; stroke:none;" d="M461 73C462.248 73.6848 462.548 73.7488 464 74C462.752 73.3153 462.452 73.2512 461 73z"/>
<path style="fill:#bec0c2; stroke:none;" d="M497 73L498 74L497 73z"/>
<path style="fill:#878a8f; stroke:none;" d="M515 73L516 74L515 73z"/>
<path style="fill:#d1d2d4; stroke:none;" d="M516 73L517 74L516 73z"/>
<path style="fill:#d4d5d6; stroke:none;" d="M543 73L544 74L543 73z"/>
<path style="fill:#8a8c91; stroke:none;" d="M544 73L545 74L544 73z"/>
<path style="fill:#b1b3b6; stroke:none;" d="M560 73L561 74L560 73z"/>
<path style="fill:#92dcdf; stroke:none;" d="M37 74L38 75L37 74z"/>
<path style="fill:#79d5d8; stroke:none;" d="M50 74L51 75L50 74z"/>
<path style="fill:#6bcfd4; stroke:none;" d="M73 74L74 75L73 74z"/>
<path style="fill:#77d4d7; stroke:none;" d="M86 74L87 75L86 74z"/>
<path style="fill:#a7a9ac; stroke:none;" d="M141 74C147.202 76.6026 156.298 75 163 75C156.798 72.3974 147.702 74 141 74z"/>
<path style="fill:#c2c4c7; stroke:none;" d="M163 74C164.248 74.6848 164.548 74.7488 166 75C164.752 74.3152 164.452 74.2512 163 74z"/>
<path style="fill:#adafb3; stroke:none;" d="M198 74L199 75L198 74z"/>
<path style="fill:#9b9da1; stroke:none;" d="M210 74L211 75L210 74z"/>
<path style="fill:#c7c9cb; stroke:none;" d="M211 74L212 75L211 74z"/>
<path style="fill:#aeb1b3; stroke:none;" d="M244 74L245 75L244 74z"/>
<path style="fill:#999b9f; stroke:none;" d="M256 74L257 75L256 74z"/>
<path style="fill:#c7c8cb; stroke:none;" d="M257 74L258 75L257 74z"/>
<path style="fill:#a8aaad; stroke:none;" d="M280 74C283.163 75.3274 286.586 74.9996 290 75C286.837 73.6726 283.414 74.0004 280 74z"/>
<path style="fill:#a9aaae; stroke:none;" d="M323 74C326.163 75.3274 329.586 74.9996 333 75C329.837 73.6726 326.414 74.0004 323 74z"/>
<path style="fill:#a9abae; stroke:none;" d="M349 74C351.332 74.9845 353.457 74.9813 356 75C353.668 74.0154 351.543 74.0187 349 74M372 74C375.432 75.4403 379.3 75 383 75C379.568 73.5597 375.7 74 372 74z"/>
<path style="fill:#aeb0b3; stroke:none;" d="M403 74L404 75L403 74z"/>
<path style="fill:#c2c4c6; stroke:none;" d="M413 74L414 75L413 74z"/>
<path style="fill:#aaacaf; stroke:none;" d="M437 74C442.469 76.295 450.099 75 456 75C450.531 72.705 442.901 74 437 74z"/>
<path style="fill:#c9cbcc; stroke:none;" d="M456 74C457.248 74.6848 457.548 74.7488 459 75C457.752 74.3152 457.452 74.2512 456 74z"/>
<path style="fill:#b7b8bb; stroke:none;" d="M500 74L501 75L500 74z"/>
<path style="fill:#989b9f; stroke:none;" d="M512 74L513 75L512 74z"/>
<path style="fill:#c3c5c8; stroke:none;" d="M513 74L514 75L513 74z"/>
<path style="fill:#d1d3d5; stroke:none;" d="M546 74L547 75L546 74z"/>
<path style="fill:#828489; stroke:none;" d="M547.667 74.3333C547.222 74.7779 548.278 74.7221 548.333 74.6667C548.778 74.2223 547.722 74.2777 547.667 74.3333z"/>
<path style="fill:#808388; stroke:none;" d="M554 74C555.248 74.6848 555.548 74.7488 557 75C555.752 74.3152 555.451 74.2512 554 74z"/>
<path style="fill:#d0d1d3; stroke:none;" d="M557.667 74.3333C557.222 74.7779 558.278 74.7221 558.333 74.6667C558.778 74.2224 557.722 74.2777 557.667 74.3333z"/>
<path style="fill:#66ced2; stroke:none;" d="M38 75L39 76L38 75z"/>
<path style="fill:#7ad4d8; stroke:none;" d="M52 75L53 76L52 75z"/>
<path style="fill:#b6e7ea; stroke:none;" d="M70 75L71 76L70 75z"/>
<path style="fill:#6ed0d4; stroke:none;" d="M71 75L72 76L71 75z"/>
<path style="fill:#dadbdd; stroke:none;" d="M202 75C203.506 75.683 204.315 75.8259 206 76C204.494 75.3169 203.685 75.1741 202 75z"/>
<path style="fill:#dbdcdd; stroke:none;" d="M248 75C249.769 75.779 251.036 75.9124 253 76C251.231 75.2211 249.964 75.0876 248 75z"/>
<path style="fill:#dadbdd; stroke:none;" d="M504 75C505.769 75.7789 507.036 75.9124 509 76C507.231 75.2211 505.964 75.0876 504 75z"/>
<path style="fill:#a3e1e4; stroke:none;" d="M54.6667 76.3333C54.2222 76.7778 55.2778 76.7222 55.3333 76.6667C55.7778 76.2222 54.7222 76.2778 54.6667 76.3333z"/>
<path style="fill:#86d8dc; stroke:none;" d="M68 76L69 77L68 76z"/>
<path style="fill:#bec0c3; stroke:none;" d="M402 76L403 77L402 76z"/>
<path style="fill:#a6a8ac; stroke:none;" d="M412 76L413 77L412 76z"/>
<path style="fill:#8cdadd; stroke:none;" d="M58 77C60.0521 77.8743 61.7472 77.9528 64 78C61.9479 77.1257 60.2528 77.0472 58 77z"/>
<path style="fill:#40c2c7; stroke:none;" d="M64.6667 77.3333C64.2222 77.7778 65.2778 77.7222 65.3333 77.6667C65.7778 77.2222 64.7222 77.2778 64.6667 77.3333z"/>
<path style="fill:#70d1d5; stroke:none;" d="M41 78L42 79L41 78z"/>
<path style="fill:#d0d2d4; stroke:none;" d="M401 78L402 79L401 78z"/>
<path style="fill:#8b8e92; stroke:none;" d="M411 78L412 79L411 78z"/>
<path style="fill:#a2e1e4; stroke:none;" d="M42 79L43 80L42 79z"/>
<path style="fill:#84888c; stroke:none;" d="M401 79L402 80L401 79z"/>
<path style="fill:#d4d5d6; stroke:none;" d="M411 79L412 80L411 79z"/>
<path style="fill:#74d2d6; stroke:none;" d="M80 80L81 81L80 80z"/>
<path style="fill:#6bd0d4; stroke:none;" d="M45 81L46 82L45 81z"/>
<path style="fill:#a0e0e3; stroke:none;" d="M79 81L80 82L79 81z"/>
<path style="fill:#95989c; stroke:none;" d="M400 81L401 82L400 81z"/>
<path style="fill:#b8bbbd; stroke:none;" d="M410 81L411 82L410 81z"/>
<path style="fill:#b8e8ea; stroke:none;" d="M46 82L47 83L46 82z"/>
<path style="fill:#85d8dc; stroke:none;" d="M77 82L78 83L77 82z"/>
<path style="fill:#9fe0e2; stroke:none;" d="M48 83L49 84L48 83z"/>
<path style="fill:#7dd5d9; stroke:none;" d="M75 83L76 84L75 83z"/>
<path style="fill:#a8aaae; stroke:none;" d="M399 83L400 84L399 83z"/>
<path style="fill:#9da0a4; stroke:none;" d="M409 83L410 84L409 83z"/>
<path style="fill:#5fcbd0; stroke:none;" d="M50.6667 84.3333C50.2222 84.7778 51.2778 84.7222 51.3333 84.6667C51.7778 84.2222 50.7222 84.2778 50.6667 84.3333z"/>
<path style="fill:#7ed6d9; stroke:none;" d="M73 84L74 85L73 84z"/>
<path style="fill:#afe6e8; stroke:none;" d="M53 85L54 86L53 85z"/>
<path style="fill:#d6f2f3; stroke:none;" d="M70.6667 85.3333C70.2222 85.7778 71.2778 85.7222 71.3333 85.6667C71.7778 85.2222 70.7222 85.2778 70.6667 85.3333z"/>
<path style="fill:#babbbe; stroke:none;" d="M398 85L399 86L398 85z"/>
<path style="fill:#82868b; stroke:none;" d="M408 85L409 86L408 85z"/>
<path style="fill:#afe6e8; stroke:none;" d="M57 86C58.2484 86.6848 58.5484 86.7488 60 87C58.7517 86.3152 58.4516 86.2512 57 86z"/>
<path style="fill:#5acacf; stroke:none;" d="M60 86C61.2484 86.6848 61.5484 86.7488 63 87C61.7517 86.3152 61.4516 86.2512 60 86z"/>
<path style="fill:#87d8dc; stroke:none;" d="M63 86C64.2484 86.6848 64.5484 86.7488 66 87C64.7517 86.3152 64.4516 86.2512 63 86z"/>
<path style="fill:#c1ebed; stroke:none;" d="M66.6667 86.3333C66.2222 86.7778 67.2778 86.7222 67.3333 86.6667C67.7778 86.2222 66.7222 86.2778 66.6667 86.3333z"/>
<path style="fill:#cbcdcf; stroke:none;" d="M408 86L409 87L408 86z"/>
<path style="fill:#cccdcf; stroke:none;" d="M397 87L398 88L397 87z"/>
<path style="fill:#b0b2b6; stroke:none;" d="M407 88L408 89L407 88z"/>
<path style="fill:#a9abae; stroke:none;" d="M396 90C398.431 92.7822 402.491 91.9996 406 92C402.888 90.6913 399.321 90.791 396 90z"/>
<path style="fill:#96989d; stroke:none;" d="M406 90L407 91L406 90z"/>
<path style="fill:#91dbdf; stroke:none;" d="M44 91C45.2484 91.6848 45.5484 91.7488 47 92C45.7516 91.3152 45.4516 91.2512 44 91z"/>
<path style="fill:#18b5bc; stroke:none;" d="M66 95L56 93.8302C53.6269 93.5479 51.3539 92.8387 49.0008 92.4684C45.2685 91.8809 39.6983 94.0341 43.608 98.4877C46.8545 102.186 60.3907 104.107 64.3966 100.974C66.1738 99.5836 65.9346 96.9927 66 95z"/>
<path style="fill:#b3e7e9; stroke:none;" d="M49.6667 92.3333C49.2222 92.7778 50.2778 92.7222 50.3333 92.6667C50.7778 92.2222 49.7222 92.2778 49.6667 92.3333z"/>
<path style="fill:#85d8db; stroke:none;" d="M53.6667 93.3333C53.2222 93.7778 54.2778 93.7222 54.3333 93.6667C54.7778 93.2222 53.7222 93.2778 53.6667 93.3333z"/>
<path style="fill:#afe5e7; stroke:none;" d="M55.6667 93.3333C55.2222 93.7778 56.2778 93.7222 56.3333 93.6667C56.7778 93.2222 55.7222 93.2778 55.6667 93.3333z"/>
<path style="fill:#d7f2f3; stroke:none;" d="M57.6667 93.3333C57.2222 93.7778 58.2778 93.7222 58.3333 93.6667C58.7778 93.2222 57.7222 93.2778 57.6667 93.3333z"/>
<path style="fill:#72d1d6; stroke:none;" d="M41 94L41 97C41.6961 95.4463 41.6961 95.5537 41 94z"/>
<path style="fill:#5fcbd1; stroke:none;" d="M62 94C63.2484 94.6848 63.5484 94.7488 65 95C63.7516 94.3152 63.4516 94.2512 62 94z"/>
<path style="fill:#aae4e7; stroke:none;" d="M66 96L67 97L66 96z"/>
<path style="fill:#5bcbcf; stroke:none;" d="M66 97L66 100C66.6961 98.4463 66.6961 98.5537 66 97z"/>
<path style="fill:#9ddfe3; stroke:none;" d="M42 98L43 99L42 98z"/>
<path style="fill:#a4e2e5; stroke:none;" d="M46 100L47 101L46 100z"/>
<path style="fill:#84d8db; stroke:none;" d="M49.6667 101.333C49.2222 101.778 50.2778 101.722 50.3333 101.667C50.7778 101.222 49.7222 101.278 49.6667 101.333z"/>
<path style="fill:#9ddfe3; stroke:none;" d="M53 102C54.2483 102.685 54.5484 102.749 56 103C54.7516 102.315 54.4516 102.251 53 102z"/>
<path style="fill:#51c7cc; stroke:none;" d="M56 102C57.769 102.779 59.0359 102.912 61 103C59.231 102.221 57.9641 102.088 56 102z"/>
<path style="fill:#91dcdf; stroke:none;" d="M61 102C62.2484 102.685 62.5484 102.749 64 103C62.7516 102.315 62.4516 102.251 61 102z"/>
</svg>
